<svg width="870" height="1056" viewBox="0 0 870 1056" fill="none" xmlns="http://www.w3.org/2000/svg">
<rect opacity="0.9" x="109" y="1014" width="12.0945" height="42" fill="#D1D1D1"/>
<rect opacity="0.9" x="152.338" y="1014" width="12.0945" height="42" fill="#D1D1D1"/>
<rect opacity="0.9" x="195.678" y="1014" width="12.0945" height="42" fill="#D1D1D1"/>
<rect opacity="0.9" x="123.109" y="1014" width="13.1024" height="42" fill="#D1D1D1"/>
<rect opacity="0.9" x="166.449" y="1014" width="13.1024" height="42" fill="#D1D1D1"/>
<rect opacity="0.9" x="209.787" y="1014" width="13.1024" height="42" fill="#D1D1D1"/>
<rect opacity="0.9" x="138.229" y="1014" width="12.0945" height="42" fill="#D1D1D1"/>
<rect opacity="0.9" x="181.566" y="1014" width="12.0945" height="42" fill="#D1D1D1"/>
<rect opacity="0.9" x="224.906" y="1014" width="12.0945" height="42" fill="#D1D1D1"/>
<rect opacity="0.9" x="726" y="1014" width="12.0945" height="42" fill="#D1D1D1"/>
<rect opacity="0.9" x="769.338" y="1014" width="12.0945" height="42" fill="#D1D1D1"/>
<rect opacity="0.9" x="812.678" y="1014" width="12.0945" height="42" fill="#D1D1D1"/>
<rect opacity="0.9" x="740.109" y="1014" width="13.1024" height="42" fill="#D1D1D1"/>
<rect opacity="0.9" x="783.449" y="1014" width="13.1024" height="42" fill="#D1D1D1"/>
<rect opacity="0.9" x="826.787" y="1014" width="13.1024" height="42" fill="#D1D1D1"/>
<rect opacity="0.9" x="755.229" y="1014" width="12.0945" height="42" fill="#D1D1D1"/>
<rect opacity="0.9" x="798.566" y="1014" width="12.0945" height="42" fill="#D1D1D1"/>
<rect opacity="0.9" x="841.906" y="1014" width="12.0945" height="42" fill="#D1D1D1"/>
<rect opacity="0.9" x="109" y="161" width="12.0945" height="42" fill="#D1D1D1"/>
<rect opacity="0.9" x="152.338" y="161" width="12.0945" height="42" fill="#D1D1D1"/>
<rect opacity="0.9" x="195.678" y="161" width="12.0945" height="42" fill="#D1D1D1"/>
<rect opacity="0.9" x="123.109" y="161" width="13.1024" height="42" fill="#D1D1D1"/>
<rect opacity="0.9" x="166.449" y="161" width="13.1024" height="42" fill="#D1D1D1"/>
<rect opacity="0.9" x="209.787" y="161" width="13.1024" height="42" fill="#D1D1D1"/>
<rect opacity="0.9" x="138.229" y="161" width="12.0945" height="42" fill="#D1D1D1"/>
<rect opacity="0.9" x="181.566" y="161" width="12.0945" height="42" fill="#D1D1D1"/>
<rect opacity="0.9" x="224.906" y="161" width="12.0945" height="42" fill="#D1D1D1"/>
<rect opacity="0.9" x="727" y="161" width="12.0945" height="42" fill="#D1D1D1"/>
<rect opacity="0.9" x="770.338" y="161" width="12.0945" height="42" fill="#D1D1D1"/>
<rect opacity="0.9" x="813.678" y="161" width="12.0945" height="42" fill="#D1D1D1"/>
<rect opacity="0.9" x="741.109" y="161" width="13.1024" height="42" fill="#D1D1D1"/>
<rect opacity="0.9" x="784.449" y="161" width="13.1024" height="42" fill="#D1D1D1"/>
<rect opacity="0.9" x="827.787" y="161" width="13.1024" height="42" fill="#D1D1D1"/>
<rect opacity="0.9" x="756.229" y="161" width="12.0945" height="42" fill="#D1D1D1"/>
<rect opacity="0.9" x="799.566" y="161" width="12.0945" height="42" fill="#D1D1D1"/>
<rect opacity="0.9" x="842.906" y="161" width="12.0945" height="42" fill="#D1D1D1"/>
<rect opacity="0.9" x="663" y="60" width="192" height="46" fill="#D1D1D1"/>
<path d="M680.388 78.272H687.78V81.696H680.388V78.272ZM680.388 72.96H687.78V76.352H680.388V72.96ZM697.668 76.352H690.116V72.96H697.668V76.352ZM697.668 81.696H690.116V78.272H697.668V81.696ZM689.156 86.848C689.412 85.856 689.604 84.8 689.732 83.744H700.1V70.912H678.02V83.744H687.268C687.14 84.832 686.948 85.888 686.692 86.848H675.46V89.024H685.956C684.42 92.448 681.412 95.008 674.564 96.416C675.012 96.896 675.62 97.824 675.812 98.464C683.652 96.704 686.948 93.408 688.548 89.024H698.564C698.116 93.408 697.604 95.36 696.868 95.936C696.548 96.224 696.196 96.256 695.492 96.256C694.756 96.256 692.676 96.224 690.564 96.064C691.012 96.672 691.3 97.568 691.364 98.24C693.38 98.336 695.332 98.368 696.356 98.336C697.444 98.272 698.148 98.08 698.852 97.408C699.876 96.448 700.484 93.952 701.06 87.904C701.124 87.584 701.156 86.848 701.156 86.848H689.156ZM738.244 83.424H725.06V80.288C728.612 78.368 732.804 75.392 735.524 72.64L733.796 71.328L733.22 71.456H712.708V73.76H730.724C728.868 75.36 726.404 77.056 724.132 78.304H722.628V83.424H709.412V85.792H722.628V95.36C722.628 95.936 722.436 96.096 721.732 96.128C721.06 96.16 718.692 96.16 716.132 96.064C716.548 96.736 716.964 97.824 717.156 98.496C720.196 98.528 722.276 98.464 723.46 98.08C724.644 97.696 725.06 96.96 725.06 95.36V85.792H738.244V83.424ZM753.284 93.184C753.284 94.368 753.22 95.936 753.06 96.96H756.164C756.036 95.904 755.972 94.176 755.972 93.184C755.972 92.256 755.972 87.424 755.94 82.624C759.492 83.744 765.028 85.888 768.516 87.776L769.604 85.056C766.244 83.36 760.164 81.056 755.94 79.776C755.94 77.76 755.94 75.904 755.94 74.56C755.94 73.6 756.068 72.224 756.164 71.232H753.028C753.22 72.224 753.284 73.664 753.284 74.56V93.184ZM779.972 84.448L781.252 86.944C785.7 85.568 790.084 83.648 793.444 81.728V93.568C793.444 94.784 793.348 96.384 793.252 96.992H796.388C796.26 96.352 796.196 94.784 796.196 93.568V80.064C799.46 77.888 802.404 75.456 804.836 72.928L802.692 70.944C800.484 73.6 797.284 76.384 793.956 78.464C790.404 80.704 785.508 82.944 779.972 84.448ZM819.044 94.976L820.9 96.576C821.412 96.256 821.892 96.096 822.244 96C830.212 93.696 836.804 89.728 840.964 84.576L839.524 82.336C835.556 87.488 828.132 91.712 822.02 93.248V75.104C822.02 74.176 822.116 72.992 822.244 72.192H819.076C819.204 72.832 819.364 74.272 819.364 75.104V93.408C819.364 94.048 819.268 94.464 819.044 94.976Z" fill="black"/>
<rect opacity="0.9" x="663" y="3" width="192" height="46" fill="#D1D1D1"/>
<path d="M695.78 22.232C694.788 26.744 693.252 30.2 690.756 32.824C687.908 31.544 684.996 30.392 682.308 29.464C683.3 27.256 684.356 24.76 685.412 22.232H695.78ZM703.46 22.232V19.832H686.404C687.428 17.336 688.388 14.904 689.22 12.696L686.692 12.248C685.86 14.552 684.836 17.176 683.748 19.832H674.788V22.232H682.756C681.188 25.976 679.588 29.592 678.308 32.216L680.644 33.08C680.868 32.6 681.124 32.056 681.38 31.512C683.78 32.408 686.308 33.464 688.772 34.584C685.572 36.952 681.188 38.424 675.044 39.256C675.524 39.832 676.036 40.792 676.292 41.496C683.076 40.504 687.876 38.712 691.332 35.832C695.172 37.752 698.628 39.8 700.9 41.592L702.692 39.416C700.388 37.688 696.964 35.768 693.22 33.976C695.78 31.032 697.38 27.192 698.404 22.232H703.46ZM738.244 26.424H725.06V23.288C728.612 21.368 732.804 18.392 735.524 15.64L733.796 14.328L733.22 14.456H712.708V16.76H730.724C728.868 18.36 726.404 20.056 724.132 21.304H722.628V26.424H709.412V28.792H722.628V38.36C722.628 38.936 722.436 39.096 721.732 39.128C721.06 39.16 718.692 39.16 716.132 39.064C716.548 39.736 716.964 40.824 717.156 41.496C720.196 41.528 722.276 41.464 723.46 41.08C724.644 40.696 725.06 39.96 725.06 38.36V28.792H738.244V26.424ZM753.284 36.184C753.284 37.368 753.22 38.936 753.06 39.96H756.164C756.036 38.904 755.972 37.176 755.972 36.184C755.972 35.256 755.972 30.424 755.94 25.624C759.492 26.744 765.028 28.888 768.516 30.776L769.604 28.056C766.244 26.36 760.164 24.056 755.94 22.776C755.94 20.76 755.94 18.904 755.94 17.56C755.94 16.6 756.068 15.224 756.164 14.232H753.028C753.22 15.224 753.284 16.664 753.284 17.56V36.184ZM779.972 27.448L781.252 29.944C785.7 28.568 790.084 26.648 793.444 24.728V36.568C793.444 37.784 793.348 39.384 793.252 39.992H796.388C796.26 39.352 796.196 37.784 796.196 36.568V23.064C799.46 20.888 802.404 18.456 804.836 15.928L802.692 13.944C800.484 16.6 797.284 19.384 793.956 21.464C790.404 23.704 785.508 25.944 779.972 27.448ZM819.044 37.976L820.9 39.576C821.412 39.256 821.892 39.096 822.244 39C830.212 36.696 836.804 32.728 840.964 27.576L839.524 25.336C835.556 30.488 828.132 34.712 822.02 36.248V18.104C822.02 17.176 822.116 15.992 822.244 15.192H819.076C819.204 15.832 819.364 17.272 819.364 18.104V36.408C819.364 37.048 819.268 37.464 819.044 37.976Z" fill="black"/>
<path d="M66 150H101V1056H66V150Z" fill="#D0D0D0" fill-opacity="0.47"/>
<path d="M684 150H719V1056H684V150Z" fill="#D0D0D0" fill-opacity="0.47"/>
<rect y="115" width="855" height="35" fill="#D0D0D0" fill-opacity="0.47"/>
<rect opacity="0.9" x="269" y="161" width="352" height="407" fill="#D1D1D1"/>
<path d="M427.272 224.488V226.184H440.296V224.488H427.272ZM424.456 208.744V210.44H443.432V208.744H424.456ZM425.192 212.616V214.216H442.664V212.616H425.192ZM423.464 216.616V218.28H444.392V216.616H423.464ZM427.272 228.776V230.44H440.392V228.776H427.272ZM425.832 220.264V235.464H427.816V221.96H440.328V220.264H425.832ZM439.752 220.264V232.968C439.752 233.384 439.624 233.512 439.176 233.544C438.728 233.544 437.192 233.576 435.528 233.48C435.784 234.024 436.072 234.824 436.168 235.368C438.44 235.368 439.848 235.368 440.712 235.048C441.576 234.696 441.8 234.12 441.8 233V220.264H439.752ZM432.776 206.184V217.128H434.888V206.184H432.776ZM418.664 206.184V235.464H420.648V206.184H418.664ZM416.2 212.328C416.008 214.824 415.464 218.344 414.728 220.552L416.424 221.096C417.192 218.728 417.704 215.048 417.832 212.552L416.2 212.328ZM421.064 211.496C421.736 213 422.472 215.016 422.76 216.2L424.296 215.464C424.008 214.28 423.24 212.392 422.536 210.92L421.064 211.496ZM461.928 218.536V220.328H472.52V218.536H461.928ZM460.84 207.688V235.56H462.856V209.64H472.232V207.688H460.84ZM471.24 207.688V213.896C471.24 214.248 471.112 214.344 470.6 214.376C470.088 214.44 468.424 214.44 466.344 214.376C466.664 214.92 466.952 215.688 467.048 216.264C469.544 216.264 471.112 216.264 472.04 215.912C473 215.592 473.224 215.016 473.224 213.896V207.688H471.24ZM464.904 219.688L463.208 220.136C465.096 226.824 468.712 232.744 473.704 235.496C474.056 234.952 474.728 234.184 475.208 233.768C470.344 231.4 466.664 225.8 464.904 219.688ZM471.88 218.536V219.048C470.824 224.904 467.752 230.952 462.888 234.12C463.368 234.472 464.008 235.08 464.328 235.56C469.48 232.104 472.712 225.8 473.992 218.952L472.648 218.44L472.264 218.536H471.88ZM446.728 209.544V211.432H458.504V209.544H446.728ZM446.312 226.952V228.808H458.952V226.952H446.312ZM445.576 214.824V216.68H459.752V214.824H445.576ZM445.992 221.416V223.272H459.368V221.416H445.992ZM451.72 206.216V215.464H453.736V206.216H451.72ZM451.72 222.216V235.464H453.736V222.216H451.72ZM456.04 216.616C455.688 217.896 454.952 219.816 454.376 221.032L456.008 221.512C456.616 220.36 457.256 218.664 457.896 217.128L456.04 216.616ZM447.848 217.096C448.52 218.536 449.128 220.36 449.288 221.544L451.016 221.032C450.888 219.912 450.216 218.056 449.48 216.68L447.848 217.096ZM349.733 246.768L347.142 245.84C347.014 246.544 346.726 247.504 346.501 248.112C345.413 251.248 343.813 254.832 341.125 258.256C337.893 262.384 333.765 266.256 327.749 269.104L329.733 270.864C335.749 267.792 339.941 263.568 343.014 259.632C345.637 256.336 347.557 252.176 348.741 249.008C348.997 248.368 349.413 247.312 349.733 246.768ZM332.933 250.64L331.461 252.432C334.885 254.512 339.109 257.744 341.413 259.664C344.581 262.32 347.365 264.848 350.021 267.888L351.781 265.936C349.285 263.184 346.149 260.432 342.981 257.808C340.613 255.888 336.133 252.656 332.933 250.64ZM361.029 246.768V249.168C361.829 249.104 362.821 249.04 363.877 249.04C365.637 249.04 373.253 249.04 375.013 249.04C375.909 249.04 376.997 249.104 377.925 249.168V246.768C376.997 246.896 375.877 246.928 375.013 246.928C373.253 246.928 365.637 246.928 363.813 246.928C362.789 246.928 361.925 246.864 361.029 246.768ZM357.189 254.768V257.168C358.085 257.104 358.949 257.072 359.941 257.072C361.733 257.072 379.205 257.072 380.869 257.072C381.637 257.072 382.597 257.104 383.302 257.168V254.768C382.533 254.864 381.542 254.928 380.869 254.928C379.205 254.928 361.733 254.928 359.941 254.928C358.949 254.928 358.053 254.864 357.189 254.768ZM372.037 255.888L369.669 255.92C369.637 259.472 369.413 262.608 367.813 265.168C366.565 267.248 364.261 269.072 361.733 270.128L363.845 271.696C366.533 270.32 368.965 268.048 370.117 265.936C371.557 263.248 372.037 259.888 372.037 255.888ZM379.525 244.08L377.99 244.752C378.853 245.968 379.941 247.888 380.581 249.2L382.149 248.464C381.477 247.152 380.325 245.232 379.525 244.08ZM382.981 242.832L381.445 243.504C382.373 244.688 383.397 246.512 384.101 247.888L385.701 247.184C385.061 246 383.845 244.016 382.981 242.832ZM386.555 261.904L387.675 264.048C392.059 262.672 396.411 260.592 399.067 258.992C402.363 257.008 405.595 254.256 407.419 252.272L405.659 250.576C403.995 252.592 401.115 255.216 398.107 257.04C395.483 258.64 390.779 260.912 386.555 261.904ZM397.819 258.288V269.776C397.819 270.704 397.755 271.984 397.691 272.432H400.315C400.219 271.984 400.187 270.704 400.187 269.776V257.68L397.819 258.288ZM442.651 248.4L441.211 247.024C440.795 247.12 439.739 247.216 439.195 247.216C437.211 247.216 422.043 247.216 420.603 247.216C419.419 247.216 418.107 247.088 417.019 246.96V249.552C418.235 249.456 419.419 249.392 420.603 249.392C422.011 249.392 436.827 249.392 439.099 249.392C438.043 251.44 434.939 255.024 431.899 256.752L433.819 258.288C437.563 255.696 440.603 251.568 441.819 249.456C442.043 249.104 442.395 248.688 442.651 248.4ZM429.883 252.592H427.323C427.419 253.392 427.451 254.096 427.451 254.8C427.451 260.176 426.747 264.912 421.659 268.016C420.795 268.56 419.707 269.104 418.875 269.36L420.955 271.088C429.019 267.12 429.883 261.392 429.883 252.592ZM452.65 265.936C452.65 268.944 453.77 270.48 459.498 270.48C463.594 270.48 466.666 270.224 469.578 269.808L469.674 267.344C466.474 267.984 463.498 268.272 459.722 268.272C455.85 268.272 454.954 267.568 454.954 265.328C454.954 262.224 454.954 251.472 454.954 248.208C454.954 247.28 455.05 246.32 455.178 245.392H452.458C452.618 246.32 452.65 247.248 452.65 248.208C452.65 251.504 452.65 262.928 452.65 265.936ZM470.954 251.6L469.29 250.288C468.938 250.512 468.362 250.672 467.69 250.832C465.354 251.344 448.746 254.704 444.746 255.216L445.194 257.616C448.97 256.784 466.698 253.264 467.498 253.104C466.506 255.024 464.138 258.64 461.674 260.912L463.658 262.096C466.282 259.408 468.746 255.44 470.218 252.784C470.442 252.4 470.73 251.92 470.954 251.6ZM480.331 246.736L478.731 248.432C481.099 250.032 485.067 253.456 486.699 255.12L488.459 253.296C486.699 251.568 482.603 248.24 480.331 246.736ZM477.803 268.208L479.307 270.544C484.811 269.488 488.811 267.472 492.011 265.456C496.811 262.416 500.427 258.096 502.571 254.192L501.195 251.76C499.371 255.632 495.531 260.368 490.699 263.408C487.659 265.328 483.499 267.344 477.803 268.208ZM516.747 255.408L515.211 256.976C519.211 259.472 524.587 263.312 527.563 266L529.227 264.048C526.027 261.424 520.907 257.808 516.747 255.408ZM531.307 249.488L529.419 248.368C528.939 248.528 528.267 248.624 527.435 248.624H517.067L516.139 250.704H528.171C527.435 253.744 525.387 257.872 522.859 260.912C519.947 264.368 515.499 267.76 509.675 269.52L511.723 271.312C517.771 269.072 521.963 265.68 524.843 262.16C527.659 258.704 529.675 254.416 530.635 251.088C530.795 250.64 531.083 249.936 531.307 249.488ZM520.491 244.944L517.899 244.112C517.739 244.88 517.227 245.936 516.939 246.48C515.499 249.424 512.139 254.288 506.667 257.712L508.587 259.184C513.771 255.6 517.291 250.768 519.179 247.312C519.467 246.736 520.01 245.712 520.491 244.944ZM537.258 256.336V259.12C538.218 259.056 539.85 258.992 541.61 258.992C543.722 258.992 556.906 258.992 559.242 258.992C560.682 258.992 561.962 259.088 562.602 259.12V256.336C561.898 256.4 560.81 256.496 559.21 256.496C556.906 256.496 543.69 256.496 541.61 256.496C539.786 256.496 538.186 256.4 537.258 256.336Z" fill="black"/>
<rect opacity="0.9" x="731" y="693" width="139" height="149" fill="#D1D1D1"/>
<rect opacity="0.9" x="731" y="213" width="137" height="149" fill="#D1D1D1"/>
<rect opacity="0.9" x="731" y="374" width="137" height="149" fill="#D1D1D1"/>
<rect opacity="0.9" x="731" y="535" width="137" height="149" fill="#D1D1D1"/>
<rect opacity="0.9" x="731" y="856" width="139" height="149" fill="#D1D1D1"/>
<path d="M743.927 724V722.781C749.217 718.158 751.632 714.777 751.632 711.902C751.632 709.97 750.643 708.544 748.55 708.544C747.17 708.544 745.974 709.395 745.031 710.499L743.812 709.326C745.192 707.831 746.664 706.842 748.803 706.842C751.816 706.842 753.702 708.797 753.702 711.81C753.702 715.191 751.057 718.618 747.078 722.367C747.975 722.275 748.987 722.206 749.838 722.206H754.507V724H743.927ZM761.929 704.611L763.654 705.048C762.389 708.452 760.342 711.649 758.203 713.719C757.858 713.42 757.145 712.845 756.708 712.615C758.893 710.706 760.802 707.716 761.929 704.611ZM761.561 707.463H776.396V709.142H760.733L761.561 707.463ZM760.434 712.684H775.89V714.294H762.159V719.745H760.434V712.684ZM756.639 718.871H777.477V720.55H756.639V718.871ZM767.334 708.337H769.105V725.863H767.334V708.337ZM784.492 724.322C781.847 724.322 780.214 723.218 779.11 721.999L780.168 720.619C781.157 721.654 782.422 722.574 784.354 722.574C786.355 722.574 787.781 721.355 787.781 719.423C787.781 717.399 786.424 716.065 782.537 716.065V714.432C786.01 714.432 787.183 713.052 787.183 711.212C787.183 709.602 786.102 708.544 784.354 708.544C782.997 708.544 781.801 709.234 780.858 710.2L779.731 708.843C780.996 707.693 782.491 706.842 784.423 706.842C787.252 706.842 789.322 708.383 789.322 711.074C789.322 713.121 788.126 714.478 786.332 715.122V715.214C788.31 715.697 789.92 717.192 789.92 719.515C789.92 722.505 787.505 724.322 784.492 724.322ZM803.16 711.787H810.612V713.374H803.16V711.787ZM803.16 717.629H810.612V719.193H803.16V717.629ZM802.263 705.991H811.532V724.598H809.807V707.555H803.942V724.598H802.263V705.991ZM799.848 723.609H813.303V725.196H799.848V723.609ZM795.57 704.703L797.111 705.278C796.237 706.98 795.133 709.027 794.236 710.269L793.04 709.763C793.914 708.429 794.972 706.221 795.57 704.703ZM798.353 707.325L799.848 707.969C798.238 710.545 795.984 713.857 794.236 715.835L793.132 715.26C794.903 713.213 797.088 709.763 798.353 707.325ZM791.936 709.533L792.81 708.383C794.098 709.464 795.547 710.982 796.168 711.994L795.248 713.305C794.627 712.224 793.178 710.637 791.936 709.533ZM797.617 712.661L798.905 712.109C799.871 713.581 800.86 715.559 801.205 716.824L799.825 717.468C799.48 716.18 798.56 714.179 797.617 712.661ZM791.89 714.984C793.96 714.915 797.019 714.8 800.055 714.662V716.065C797.134 716.249 794.213 716.41 792.028 716.525L791.89 714.984ZM798.192 718.158L799.503 717.744C800.17 719.147 800.814 720.964 801.067 722.16L799.664 722.643C799.457 721.447 798.836 719.584 798.192 718.158ZM793.155 717.836L794.65 718.112C794.328 720.274 793.753 722.505 793.017 723.977C792.718 723.793 792.028 723.471 791.66 723.31C792.419 721.907 792.879 719.86 793.155 717.836ZM795.8 715.651H797.364V725.909H795.8V715.651Z" fill="black"/>
<path d="M765.184 919.04C765.056 919.648 764.928 920.32 764.8 920.96C764.608 922.112 764.16 924.736 763.744 926.72C762.656 931.2 760.352 939.168 756.736 945.024L754.144 943.968C757.792 939.104 760.352 930.56 761.216 926.624C761.792 924.096 762.24 921.216 762.24 918.752L765.184 919.04ZM776.224 922.464C778.208 925.056 780.992 930.944 782.048 933.92L779.584 935.104C778.624 931.808 776.128 926.144 773.888 923.52L776.224 922.464ZM753.664 926.08C754.688 926.112 755.52 926.112 756.544 926.08C758.912 926.016 765.408 925.28 767.584 925.28C770.432 925.28 772.768 926.368 772.768 930.72C772.768 934.528 772.256 939.616 770.944 942.272C769.92 944.416 768.32 944.928 766.272 944.928C765.024 944.928 763.52 944.704 762.496 944.48L762.08 941.792C763.424 942.208 765.088 942.464 765.984 942.464C767.168 942.464 768.128 942.208 768.8 940.8C769.824 938.656 770.304 934.464 770.304 931.008C770.304 928.096 768.96 927.552 766.912 927.552C764.768 927.552 758.784 928.256 756.832 928.448C756.096 928.544 754.752 928.704 753.952 928.832L753.664 926.08ZM789.728 922.08C794.176 922.624 798.368 922.688 801.632 922.368C804.256 922.144 806.88 921.6 809.184 920.832L809.536 923.168C807.456 923.776 804.736 924.32 802.176 924.544C798.944 924.864 794.464 924.864 789.888 924.416L789.728 922.08ZM789.088 928.64C794.56 929.216 800 929.12 803.744 928.672C806.784 928.352 809.376 927.712 811.072 927.2L811.488 929.568C809.728 930.048 807.296 930.528 804.608 930.848C800.672 931.36 794.752 931.456 789.248 931.04L789.088 928.64ZM800.032 921.664C799.776 920.736 799.488 919.744 799.136 918.816L801.856 918.464C802.176 921.152 803.168 924.384 803.968 926.656C804.832 929.152 806.24 932.224 807.904 934.688C808.256 935.2 808.64 935.648 809.12 936.064L807.776 938.016C805.984 937.568 803.008 937.248 800.8 937.024L800.992 935.072C802.72 935.232 804.8 935.456 805.792 935.584C804.032 932.832 802.688 929.76 801.76 927.168C800.96 924.96 800.48 923.264 800.032 921.664ZM793.76 935.552C792.992 936.64 792.416 937.728 792.416 939.168C792.416 941.792 794.752 943.136 799.776 943.136C802.752 943.136 805.088 942.912 807.424 942.464L807.296 944.992C805.056 945.376 802.56 945.568 799.808 945.568C793.568 945.568 790.048 943.712 789.984 939.584C789.984 937.76 790.528 936.416 791.264 935.008L793.76 935.552ZM818.816 928.448H828.096V930.816H818.816V928.448ZM831.68 917.184H834.144V943.264C834.144 944.96 833.728 945.728 832.672 946.144C831.584 946.56 829.664 946.624 826.848 946.624C826.72 945.92 826.336 944.768 825.952 944.032C828.192 944.096 830.24 944.064 830.88 944.064C831.456 944.032 831.68 943.872 831.68 943.232V917.184ZM820.96 920.864L822.656 919.296C825.024 920.768 828.096 922.944 829.632 924.416L827.84 926.176C826.4 924.704 823.36 922.4 820.96 920.864ZM827.2 928.448H827.712L828.16 928.352L829.728 929.024C828.064 936.32 824.288 941.408 819.808 944.16C819.456 943.552 818.528 942.624 817.952 942.24C822.272 939.808 825.824 935.2 827.2 928.96V928.448ZM833.952 922.144C836.256 930.688 840.992 938.624 847.872 941.92C847.296 942.368 846.464 943.328 846.016 944.032C839.008 940.288 834.528 931.936 832.064 922.592L833.952 922.144ZM844.288 922.08L846.496 923.68C843.808 926.528 840.224 930.016 837.472 932.16L835.776 930.784C838.496 928.576 842.144 924.896 844.288 922.08Z" fill="black"/>
<path d="M740.62 240V238.252H744.369V225.694H741.356V224.337C742.874 224.084 743.955 223.693 744.852 223.141H746.462V238.252H749.866V240H740.62ZM757.61 220.611L759.335 221.048C758.07 224.452 756.023 227.649 753.884 229.719C753.539 229.42 752.826 228.845 752.389 228.615C754.574 226.706 756.483 223.716 757.61 220.611ZM757.242 223.463H772.077V225.142H756.414L757.242 223.463ZM756.115 228.684H771.571V230.294H757.84V235.745H756.115V228.684ZM752.32 234.871H773.158V236.55H752.32V234.871ZM763.015 224.337H764.786V241.863H763.015V224.337ZM776.148 240V238.252H779.897V225.694H776.884V224.337C778.402 224.084 779.483 223.693 780.38 223.141H781.99V238.252H785.394V240H776.148ZM792.769 240.322C790.147 240.322 788.537 239.218 787.387 238.068L788.445 236.688C789.388 237.677 790.63 238.574 792.562 238.574C794.563 238.574 796.15 237.033 796.15 234.595C796.15 232.18 794.77 230.731 792.677 230.731C791.55 230.731 790.837 231.099 789.871 231.743L788.744 231.03L789.273 223.141H797.484V224.935H791.113L790.676 229.811C791.435 229.397 792.194 229.144 793.206 229.144C796.012 229.144 798.289 230.8 798.289 234.526C798.289 238.206 795.598 240.322 792.769 240.322ZM811.484 227.787H818.936V229.374H811.484V227.787ZM811.484 233.629H818.936V235.193H811.484V233.629ZM810.587 221.991H819.856V240.598H818.131V223.555H812.266V240.598H810.587V221.991ZM808.172 239.609H821.627V241.196H808.172V239.609ZM803.894 220.703L805.435 221.278C804.561 222.98 803.457 225.027 802.56 226.269L801.364 225.763C802.238 224.429 803.296 222.221 803.894 220.703ZM806.677 223.325L808.172 223.969C806.562 226.545 804.308 229.857 802.56 231.835L801.456 231.26C803.227 229.213 805.412 225.763 806.677 223.325ZM800.26 225.533L801.134 224.383C802.422 225.464 803.871 226.982 804.492 227.994L803.572 229.305C802.951 228.224 801.502 226.637 800.26 225.533ZM805.941 228.661L807.229 228.109C808.195 229.581 809.184 231.559 809.529 232.824L808.149 233.468C807.804 232.18 806.884 230.179 805.941 228.661ZM800.214 230.984C802.284 230.915 805.343 230.8 808.379 230.662V232.065C805.458 232.249 802.537 232.41 800.352 232.525L800.214 230.984ZM806.516 234.158L807.827 233.744C808.494 235.147 809.138 236.964 809.391 238.16L807.988 238.643C807.781 237.447 807.16 235.584 806.516 234.158ZM801.479 233.836L802.974 234.112C802.652 236.274 802.077 238.505 801.341 239.977C801.042 239.793 800.352 239.471 799.984 239.31C800.743 237.907 801.203 235.86 801.479 233.836ZM804.124 231.651H805.688V241.909H804.124V231.651Z" fill="black"/>
<path d="M759.475 269.3C759.325 269.5 759 270.05 758.875 270.375C757.875 272.85 755.975 276.35 753.9 278.65C751.1 281.775 747.525 284.75 743.575 286.55L741.975 284.875C746.025 283.325 749.7 280.325 752.275 277.475C753.975 275.55 755.8 272.575 756.45 270.5C755.55 270.5 747.55 270.5 746.7 270.5C745.8 270.5 744.45 270.6 744.175 270.625V268.375C744.5 268.425 745.925 268.525 746.7 268.525C747.675 268.525 755.4 268.525 756.35 268.525C757.15 268.525 757.825 268.45 758.225 268.325L759.475 269.3ZM754.225 277.35C756.925 279.6 760.25 283.1 761.95 285.175L760.225 286.7C758.425 284.325 755.5 281.125 752.8 278.75L754.225 277.35ZM770.65 283.8C770.65 282.4 770.65 271.35 770.65 269.275C770.65 268.55 770.6 267.45 770.475 266.65H772.925C772.825 267.425 772.75 268.5 772.75 269.275C772.75 273.15 772.775 282.625 772.775 283.8C772.775 284.6 772.825 285.95 772.925 286.775H770.5C770.625 285.975 770.65 284.725 770.65 283.8ZM772.3 273.225C775.6 274.175 780.65 276.1 783.425 277.45L782.55 279.575C779.7 278.05 775.025 276.275 772.3 275.425V273.225ZM790.775 267.4C791.425 267.475 792.2 267.525 793 267.525C794.35 267.525 801.375 267.525 802.85 267.525C803.625 267.525 804.5 267.475 805.1 267.4V269.475C804.525 269.425 803.65 269.4 802.8 269.4C801.4 269.4 794.375 269.4 793 269.4C792.25 269.4 791.45 269.425 790.775 269.475V267.4ZM806.95 273.975C806.825 274.225 806.65 274.525 806.6 274.725C805.95 277.175 804.825 279.775 802.95 281.825C800.35 284.7 797.2 286.15 794.025 287.05L792.475 285.275C796 284.55 799.125 282.925 801.275 280.675C802.775 279.1 803.775 276.975 804.225 275.15C803 275.15 792.475 275.15 790.975 275.15C790.375 275.15 789.425 275.175 788.525 275.25V273.15C789.425 273.225 790.275 273.3 790.975 273.3C792.2 273.3 802.85 273.3 804.125 273.3C804.7 273.3 805.25 273.225 805.525 273.1L806.95 273.975ZM819.825 271.625C820.25 272.625 821.475 275.925 821.775 277L819.925 277.675C819.65 276.525 818.5 273.35 817.975 272.25L819.825 271.625ZM828.875 273.025C828.7 273.525 828.575 273.925 828.475 274.25C827.825 277 826.725 279.7 824.95 281.95C822.625 284.875 819.575 286.825 816.8 287.875L815.15 286.2C818.025 285.35 821.225 283.45 823.275 280.9C825.05 278.725 826.325 275.525 826.725 272.325L828.875 273.025ZM814 272.875C814.5 273.925 815.825 277.2 816.275 278.525L814.4 279.225C814 277.925 812.65 274.45 812.15 273.575L814 272.875ZM852.275 270.375C852.075 270.725 851.825 271.3 851.7 271.7C851.025 274.225 849.5 277.6 847.275 280.325C845 283.1 842 285.375 837.325 287.125L835.5 285.475C840.1 284.125 843.2 281.875 845.5 279.2C847.425 276.925 848.975 273.675 849.475 271.4H840.225L841.025 269.6C842.025 269.6 848.2 269.6 848.975 269.6C849.65 269.6 850.225 269.525 850.625 269.375L852.275 270.375ZM843.9 266.6C843.5 267.25 843.05 268.1 842.8 268.55C841.325 271.325 838.725 274.9 834.7 277.55L832.95 276.275C837.275 273.7 839.725 270.05 840.825 267.825C841.075 267.375 841.45 266.475 841.6 265.825L843.9 266.6ZM785.525 298.125C785.325 298.35 785.025 298.725 784.85 299C783.85 300.7 781.475 303.925 778.625 305.9L776.95 304.575C779.275 303.25 781.625 300.55 782.425 299C780.675 299 769.375 299 768.175 299C767.25 299 766.325 299.05 765.35 299.125V296.875C766.225 297 767.25 297.1 768.175 297.1C769.375 297.1 781.05 297.1 782.55 297.1C783.025 297.1 783.925 297.025 784.275 296.925L785.525 298.125ZM775.525 301.4C775.525 308.175 774.925 312.75 768.55 315.95L766.725 314.45C767.4 314.225 768.275 313.8 768.975 313.325C772.825 310.95 773.375 307.4 773.375 303.225C773.375 302.625 773.375 302.075 773.275 301.4H775.525ZM798.5 295C798.4 295.775 798.375 296.35 798.375 296.875C798.375 297.45 798.375 299.325 798.375 300.2H796.25C796.25 299.225 796.25 297.45 796.25 296.875C796.25 296.35 796.225 295.775 796.125 295H798.5ZM807.025 299.85C806.9 300.2 806.75 300.875 806.675 301.35C806.325 303.35 805.6 306.475 804.2 308.85C802.35 312.125 798.9 314.675 794.325 315.925L792.7 314.075C793.525 313.925 794.475 313.675 795.275 313.375C797.8 312.55 800.525 310.7 802.075 308.325C803.425 306.2 804.2 303.175 804.425 301.05H790.475C790.475 302.075 790.475 304.75 790.475 305.525C790.475 305.95 790.5 306.625 790.55 307H788.375C788.45 306.575 788.475 305.9 788.475 305.4C788.475 304.6 788.475 301.875 788.475 301C788.475 300.475 788.475 299.625 788.375 299.1C789.1 299.15 789.85 299.2 790.725 299.2H803.975C804.9 299.2 805.35 299.1 805.675 299L807.025 299.85ZM816.15 312.8C816.15 311.4 816.15 300.35 816.15 298.275C816.15 297.55 816.1 296.45 815.975 295.65H818.425C818.325 296.425 818.25 297.5 818.25 298.275C818.25 302.15 818.275 311.625 818.275 312.8C818.275 313.6 818.325 314.95 818.425 315.775H816C816.125 314.975 816.15 313.725 816.15 312.8ZM817.8 302.225C821.1 303.175 826.15 305.1 828.925 306.45L828.05 308.575C825.2 307.05 820.525 305.275 817.8 304.425V302.225Z" fill="black"/>
<path d="M738.823 398V396.252H742.572V383.694H739.559V382.337C741.077 382.084 742.158 381.693 743.055 381.141H744.665V396.252H748.069V398H738.823ZM755.813 378.611L757.538 379.048C756.273 382.452 754.226 385.649 752.087 387.719C751.742 387.42 751.029 386.845 750.592 386.615C752.777 384.706 754.686 381.716 755.813 378.611ZM755.445 381.463H770.28V383.142H754.617L755.445 381.463ZM754.318 386.684H769.774V388.294H756.043V393.745H754.318V386.684ZM750.523 392.871H771.361V394.55H750.523V392.871ZM761.218 382.337H762.989V399.863H761.218V382.337ZM772.396 398L778.1 381.141H780.492L786.196 398H783.965L780.998 388.57C780.4 386.684 779.871 384.844 779.319 382.889H779.227C778.675 384.844 778.146 386.684 777.525 388.57L774.558 398H772.396ZM775.386 392.848V391.169H783.16V392.848H775.386ZM788.505 398V381.141H793.496C796.923 381.141 799.292 382.314 799.292 385.281C799.292 386.937 798.418 388.409 796.831 388.938V389.03C798.855 389.421 800.258 390.778 800.258 393.078C800.258 396.367 797.636 398 793.887 398H788.505ZM790.644 388.317H793.128C796.026 388.317 797.199 387.259 797.199 385.534C797.199 383.556 795.865 382.82 793.243 382.82H790.644V388.317ZM790.644 396.321H793.588C796.463 396.321 798.188 395.286 798.188 393.009C798.188 390.916 796.532 389.95 793.588 389.95H790.644V396.321ZM813.281 385.787H820.733V387.374H813.281V385.787ZM813.281 391.629H820.733V393.193H813.281V391.629ZM812.384 379.991H821.653V398.598H819.928V381.555H814.063V398.598H812.384V379.991ZM809.969 397.609H823.424V399.196H809.969V397.609ZM805.691 378.703L807.232 379.278C806.358 380.98 805.254 383.027 804.357 384.269L803.161 383.763C804.035 382.429 805.093 380.221 805.691 378.703ZM808.474 381.325L809.969 381.969C808.359 384.545 806.105 387.857 804.357 389.835L803.253 389.26C805.024 387.213 807.209 383.763 808.474 381.325ZM802.057 383.533L802.931 382.383C804.219 383.464 805.668 384.982 806.289 385.994L805.369 387.305C804.748 386.224 803.299 384.637 802.057 383.533ZM807.738 386.661L809.026 386.109C809.992 387.581 810.981 389.559 811.326 390.824L809.946 391.468C809.601 390.18 808.681 388.179 807.738 386.661ZM802.011 388.984C804.081 388.915 807.14 388.8 810.176 388.662V390.065C807.255 390.249 804.334 390.41 802.149 390.525L802.011 388.984ZM808.313 392.158L809.624 391.744C810.291 393.147 810.935 394.964 811.188 396.16L809.785 396.643C809.578 395.447 808.957 393.584 808.313 392.158ZM803.276 391.836L804.771 392.112C804.449 394.274 803.874 396.505 803.138 397.977C802.839 397.793 802.149 397.471 801.781 397.31C802.54 395.907 803 393.86 803.276 391.836ZM805.921 389.651H807.485V399.909H805.921V389.651Z" fill="black"/>
<path d="M762.084 451.028H764.625V467.462H762.084V451.028ZM752.283 450.104H774.657V452.414H752.283V450.104ZM753.141 457.397H773.931V459.707H753.141V457.397ZM749.148 466.373H777.825V468.683H749.148V466.373ZM767.232 461.357L768.948 460.07C770.862 461.357 773.172 463.337 774.261 464.624L772.446 466.109C771.39 464.723 769.113 462.743 767.232 461.357ZM762.084 439.313H764.691V444.626H762.084V439.313ZM749.709 443.207H777.198V450.203H774.591V445.583H752.217V450.203H749.709V443.207ZM788.814 456.308H808.317V458.585H788.814V456.308ZM799.869 444.296H802.113V450.137C802.113 450.83 802.245 450.962 803.07 450.962C803.433 450.962 805.281 450.962 805.776 450.962C806.502 450.962 806.634 450.632 806.7 448.058C807.162 448.421 808.086 448.751 808.713 448.916C808.482 452.15 807.855 452.975 806.04 452.975C805.545 452.975 803.235 452.975 802.773 452.975C800.397 452.975 799.869 452.348 799.869 450.17V444.296ZM789.342 441.095H808.053V446.936H805.809V443.273H791.52V447.068H789.342V441.095ZM797.196 452.744H799.638V469.64H797.196V452.744ZM794.589 444.362H796.899C796.569 449.477 795.282 452.249 789.87 453.734C789.639 453.206 789.045 452.381 788.583 451.985C793.368 450.764 794.325 448.619 794.589 444.362ZM800.562 457.331C802.344 460.928 805.842 464.426 809.241 466.142C808.713 466.604 807.954 467.462 807.525 468.089C804.06 466.043 800.562 462.116 798.615 458.09L800.562 457.331ZM796.404 457.133L798.351 457.826C796.371 462.281 792.675 466.241 788.616 468.254C788.253 467.66 787.56 466.802 786.999 466.34C790.893 464.657 794.589 461.06 796.404 457.133ZM777.891 456.407C780.465 455.681 784.326 454.493 788.088 453.272L788.418 455.549C784.986 456.737 781.356 457.925 778.551 458.816L777.891 456.407ZM778.353 445.946H788.385V448.256H778.353V445.946ZM782.511 439.313H784.821V466.769C784.821 468.155 784.491 468.815 783.666 469.211C782.907 469.607 781.62 469.673 779.541 469.673C779.442 469.079 779.145 468.056 778.815 467.363C780.267 467.396 781.521 467.396 781.917 467.363C782.313 467.363 782.511 467.264 782.511 466.769V439.313ZM818.25 441.293C818.085 442.382 817.986 443.537 817.92 444.626C817.788 448.355 817.524 456.176 817.524 461.093C817.524 464.723 819.801 465.977 822.936 465.977C828.975 465.977 832.407 462.611 834.783 459.179L836.631 461.423C834.387 464.558 830.097 468.683 822.87 468.683C818.118 468.683 814.851 466.736 814.851 461.324C814.851 456.44 815.181 448.091 815.181 444.626C815.181 443.405 815.082 442.25 814.884 441.293H818.25Z" fill="black"/>
<path d="M738.82 568V566.252H742.569V553.694H739.556V552.337C741.074 552.084 742.155 551.693 743.052 551.141H744.662V566.252H748.066V568H738.82ZM755.81 548.611L757.535 549.048C756.27 552.452 754.223 555.649 752.084 557.719C751.739 557.42 751.026 556.845 750.589 556.615C752.774 554.706 754.683 551.716 755.81 548.611ZM755.442 551.463H770.277V553.142H754.614L755.442 551.463ZM754.315 556.684H769.771V558.294H756.04V563.745H754.315V556.684ZM750.52 562.871H771.358V564.55H750.52V562.871ZM761.215 552.337H762.986V569.863H761.215V552.337ZM772.393 568L778.097 551.141H780.489L786.193 568H783.962L780.995 558.57C780.397 556.684 779.868 554.844 779.316 552.889H779.224C778.672 554.844 778.143 556.684 777.522 558.57L774.555 568H772.393ZM775.383 562.848V561.169H783.157V562.848H775.383ZM788.502 568V551.141H793.493C796.92 551.141 799.289 552.314 799.289 555.281C799.289 556.937 798.415 558.409 796.828 558.938V559.03C798.852 559.421 800.255 560.778 800.255 563.078C800.255 566.367 797.633 568 793.884 568H788.502ZM790.641 558.317H793.125C796.023 558.317 797.196 557.259 797.196 555.534C797.196 553.556 795.862 552.82 793.24 552.82H790.641V558.317ZM790.641 566.321H793.585C796.46 566.321 798.185 565.286 798.185 563.009C798.185 560.916 796.529 559.95 793.585 559.95H790.641V566.321ZM813.279 555.787H820.731V557.374H813.279V555.787ZM813.279 561.629H820.731V563.193H813.279V561.629ZM812.382 549.991H821.651V568.598H819.926V551.555H814.061V568.598H812.382V549.991ZM809.967 567.609H823.422V569.196H809.967V567.609ZM805.689 548.703L807.23 549.278C806.356 550.98 805.252 553.027 804.355 554.269L803.159 553.763C804.033 552.429 805.091 550.221 805.689 548.703ZM808.472 551.325L809.967 551.969C808.357 554.545 806.103 557.857 804.355 559.835L803.251 559.26C805.022 557.213 807.207 553.763 808.472 551.325ZM802.055 553.533L802.929 552.383C804.217 553.464 805.666 554.982 806.287 555.994L805.367 557.305C804.746 556.224 803.297 554.637 802.055 553.533ZM807.736 556.661L809.024 556.109C809.99 557.581 810.979 559.559 811.324 560.824L809.944 561.468C809.599 560.18 808.679 558.179 807.736 556.661ZM802.009 558.984C804.079 558.915 807.138 558.8 810.174 558.662V560.065C807.253 560.249 804.332 560.41 802.147 560.525L802.009 558.984ZM808.311 562.158L809.622 561.744C810.289 563.147 810.933 564.964 811.186 566.16L809.783 566.643C809.576 565.447 808.955 563.584 808.311 562.158ZM803.274 561.836L804.769 562.112C804.447 564.274 803.872 566.505 803.136 567.977C802.837 567.793 802.147 567.471 801.779 567.31C802.538 565.907 802.998 563.86 803.274 561.836ZM805.919 559.651H807.483V569.909H805.919V559.651Z" fill="black"/>
<path d="M764.536 610.512H767V626.448H764.536V610.512ZM755.032 609.616H776.728V611.856H755.032V609.616ZM755.864 616.688H776.024V618.928H755.864V616.688ZM751.992 625.392H779.8V627.632H751.992V625.392ZM769.528 620.528L771.192 619.28C773.048 620.528 775.288 622.448 776.344 623.696L774.584 625.136C773.56 623.792 771.352 621.872 769.528 620.528ZM764.536 599.152H767.064V604.304H764.536V599.152ZM752.536 602.928H779.192V609.712H776.664V605.232H754.968V609.712H752.536V602.928ZM790.456 615.632H809.368V617.84H790.456V615.632ZM801.176 603.984H803.352V609.648C803.352 610.32 803.48 610.448 804.28 610.448C804.632 610.448 806.424 610.448 806.904 610.448C807.608 610.448 807.736 610.128 807.8 607.632C808.248 607.984 809.144 608.304 809.752 608.464C809.528 611.6 808.92 612.4 807.16 612.4C806.68 612.4 804.44 612.4 803.992 612.4C801.688 612.4 801.176 611.792 801.176 609.68V603.984ZM790.968 600.88H809.112V606.544H806.936V602.992H793.08V606.672H790.968V600.88ZM798.584 612.176H800.952V628.56H798.584V612.176ZM796.056 604.048H798.296C797.976 609.008 796.728 611.696 791.48 613.136C791.256 612.624 790.68 611.824 790.232 611.44C794.872 610.256 795.8 608.176 796.056 604.048ZM801.848 616.624C803.576 620.112 806.968 623.504 810.264 625.168C809.752 625.616 809.016 626.448 808.6 627.056C805.24 625.072 801.848 621.264 799.96 617.36L801.848 616.624ZM797.816 616.432L799.704 617.104C797.784 621.424 794.2 625.264 790.264 627.216C789.912 626.64 789.24 625.808 788.696 625.36C792.472 623.728 796.056 620.24 797.816 616.432ZM779.864 615.728C782.36 615.024 786.104 613.872 789.752 612.688L790.072 614.896C786.744 616.048 783.224 617.2 780.504 618.064L779.864 615.728ZM780.312 605.584H790.04V607.824H780.312V605.584ZM784.344 599.152H786.584V625.776C786.584 627.12 786.264 627.76 785.464 628.144C784.728 628.528 783.48 628.592 781.464 628.592C781.368 628.016 781.08 627.024 780.76 626.352C782.168 626.384 783.384 626.384 783.768 626.352C784.152 626.352 784.344 626.256 784.344 625.776V599.152ZM819 601.072C818.84 602.128 818.744 603.248 818.68 604.304C818.552 607.92 818.296 615.504 818.296 620.272C818.296 623.792 820.504 625.008 823.544 625.008C829.4 625.008 832.728 621.744 835.032 618.416L836.824 620.592C834.648 623.632 830.488 627.632 823.48 627.632C818.872 627.632 815.704 625.744 815.704 620.496C815.704 615.76 816.024 607.664 816.024 604.304C816.024 603.12 815.928 602 815.736 601.072H819Z" fill="black"/>
<path d="M765.829 764.712C765.509 765.064 765.221 765.416 765.029 765.704C762.629 769.64 758.213 775.272 752.549 779.368L750.565 777.576C755.684 774.024 759.812 768.84 761.509 765.8C758.628 765.8 744.517 765.8 742.693 765.8C741.412 765.8 740.036 765.896 739.428 765.96V763.112C740.293 763.24 741.572 763.336 742.693 763.336C744.325 763.336 758.565 763.336 761.765 763.336C762.629 763.336 763.365 763.272 763.813 763.112L765.829 764.712ZM750.757 779.912C748.837 777.992 745.156 774.824 743.461 773.608L745.509 771.944C746.981 773 750.693 776.04 752.997 778.28C755.013 780.296 757.509 782.92 758.885 784.584L756.549 786.44C755.365 784.808 752.805 781.992 750.757 779.912ZM792.805 763.752C792.58 764.2 792.452 764.712 792.324 765.352C791.621 768.712 790.084 773.864 787.524 777.16C784.612 780.904 780.804 783.88 774.948 785.704L772.772 783.304C778.98 781.768 782.564 779.048 785.252 775.624C787.524 772.712 788.997 768.264 789.444 765.192C787.588 765.192 774.916 765.192 773.06 765.192C771.78 765.192 770.692 765.256 769.892 765.288V762.44C770.756 762.568 772.036 762.664 773.092 762.664C774.916 762.664 787.684 762.664 789.125 762.664C789.604 762.664 790.244 762.632 790.852 762.504L792.805 763.752ZM797.619 776.776C801.843 775.752 806.547 773.512 809.171 771.912C812.179 770.088 815.123 767.432 816.787 765.416L818.771 767.336C816.915 769.32 813.587 772.104 810.259 774.12C807.571 775.72 803.123 777.832 798.867 779.144L797.619 776.776ZM808.883 773.384L811.539 772.712V784.712C811.539 785.672 811.571 787.016 811.699 787.496H808.723C808.787 787.016 808.883 785.672 808.883 784.712V773.384ZM830.132 761.576C832.372 763.08 836.5 766.408 838.26 768.168L836.276 770.216C834.644 768.552 830.676 765.096 828.276 763.528L830.132 761.576ZM827.38 783.016C832.948 782.184 837.108 780.232 840.148 778.344C845.108 775.24 848.98 770.504 850.836 766.536L852.372 769.288C850.196 773.256 846.484 777.608 841.652 780.648C838.42 782.664 834.388 784.648 829.044 785.64L827.38 783.016Z" fill="black"/>
<path d="M741.927 882V880.781C747.217 876.158 749.632 872.777 749.632 869.902C749.632 867.97 748.643 866.544 746.55 866.544C745.17 866.544 743.974 867.395 743.031 868.499L741.812 867.326C743.192 865.831 744.664 864.842 746.803 864.842C749.816 864.842 751.702 866.797 751.702 869.81C751.702 873.191 749.057 876.618 745.078 880.367C745.975 880.275 746.987 880.206 747.838 880.206H752.507V882H741.927ZM759.929 862.611L761.654 863.048C760.389 866.452 758.342 869.649 756.203 871.719C755.858 871.42 755.145 870.845 754.708 870.615C756.893 868.706 758.802 865.716 759.929 862.611ZM759.561 865.463H774.396V867.142H758.733L759.561 865.463ZM758.434 870.684H773.89V872.294H760.159V877.745H758.434V870.684ZM754.639 876.871H775.477V878.55H754.639V876.871ZM765.334 866.337H767.105V883.863H765.334V866.337ZM780.974 882C781.273 875.629 782.423 871.535 785.735 866.935H777.57V865.141H788.104V866.406C784.148 871.489 783.435 875.422 783.159 882H780.974ZM801.16 869.787H808.612V871.374H801.16V869.787ZM801.16 875.629H808.612V877.193H801.16V875.629ZM800.263 863.991H809.532V882.598H807.807V865.555H801.942V882.598H800.263V863.991ZM797.848 881.609H811.303V883.196H797.848V881.609ZM793.57 862.703L795.111 863.278C794.237 864.98 793.133 867.027 792.236 868.269L791.04 867.763C791.914 866.429 792.972 864.221 793.57 862.703ZM796.353 865.325L797.848 865.969C796.238 868.545 793.984 871.857 792.236 873.835L791.132 873.26C792.903 871.213 795.088 867.763 796.353 865.325ZM789.936 867.533L790.81 866.383C792.098 867.464 793.547 868.982 794.168 869.994L793.248 871.305C792.627 870.224 791.178 868.637 789.936 867.533ZM795.617 870.661L796.905 870.109C797.871 871.581 798.86 873.559 799.205 874.824L797.825 875.468C797.48 874.18 796.56 872.179 795.617 870.661ZM789.89 872.984C791.96 872.915 795.019 872.8 798.055 872.662V874.065C795.134 874.249 792.213 874.41 790.028 874.525L789.89 872.984ZM796.192 876.158L797.503 875.744C798.17 877.147 798.814 878.964 799.067 880.16L797.664 880.643C797.457 879.447 796.836 877.584 796.192 876.158ZM791.155 875.836L792.65 876.112C792.328 878.274 791.753 880.505 791.017 881.977C790.718 881.793 790.028 881.471 789.66 881.31C790.419 879.907 790.879 877.86 791.155 875.836ZM793.8 873.651H795.364V883.909H793.8V873.651Z" fill="black"/>
<rect opacity="0.9" x="109" y="693" width="141" height="149" fill="#D1D1D1"/>
<rect opacity="0.9" x="111" y="213" width="137" height="149" fill="#D1D1D1"/>
<rect opacity="0.9" x="111" y="374" width="137" height="149" fill="#D1D1D1"/>
<rect opacity="0.9" x="111" y="535" width="137" height="149" fill="#D1D1D1"/>
<rect opacity="0.9" x="111" y="856" width="139" height="149" fill="#D1D1D1"/>
<path d="M117.605 724V722.781C122.895 718.158 125.31 714.777 125.31 711.902C125.31 709.97 124.321 708.544 122.228 708.544C120.848 708.544 119.652 709.395 118.709 710.499L117.49 709.326C118.87 707.831 120.342 706.842 122.481 706.842C125.494 706.842 127.38 708.797 127.38 711.81C127.38 715.191 124.735 718.618 120.756 722.367C121.653 722.275 122.665 722.206 123.516 722.206H128.185V724H117.605ZM135.607 704.611L137.332 705.048C136.067 708.452 134.02 711.649 131.881 713.719C131.536 713.42 130.823 712.845 130.386 712.615C132.571 710.706 134.48 707.716 135.607 704.611ZM135.239 707.463H150.074V709.142H134.411L135.239 707.463ZM134.112 712.684H149.568V714.294H135.837V719.745H134.112V712.684ZM130.317 718.871H151.155V720.55H130.317V718.871ZM141.012 708.337H142.783V725.863H141.012V708.337ZM154.145 724V722.252H157.894V709.694H154.881V708.337C156.399 708.084 157.48 707.693 158.377 707.141H159.987V722.252H163.391V724H154.145ZM166.788 724V722.252H170.537V709.694H167.524V708.337C169.042 708.084 170.123 707.693 171.02 707.141H172.63V722.252H176.034V724H166.788ZM189.482 711.787H196.934V713.374H189.482V711.787ZM189.482 717.629H196.934V719.193H189.482V717.629ZM188.585 705.991H197.854V724.598H196.129V707.555H190.264V724.598H188.585V705.991ZM186.17 723.609H199.625V725.196H186.17V723.609ZM181.892 704.703L183.433 705.278C182.559 706.98 181.455 709.027 180.558 710.269L179.362 709.763C180.236 708.429 181.294 706.221 181.892 704.703ZM184.675 707.325L186.17 707.969C184.56 710.545 182.306 713.857 180.558 715.835L179.454 715.26C181.225 713.213 183.41 709.763 184.675 707.325ZM178.258 709.533L179.132 708.383C180.42 709.464 181.869 710.982 182.49 711.994L181.57 713.305C180.949 712.224 179.5 710.637 178.258 709.533ZM183.939 712.661L185.227 712.109C186.193 713.581 187.182 715.559 187.527 716.824L186.147 717.468C185.802 716.18 184.882 714.179 183.939 712.661ZM178.212 714.984C180.282 714.915 183.341 714.8 186.377 714.662V716.065C183.456 716.249 180.535 716.41 178.35 716.525L178.212 714.984ZM184.514 718.158L185.825 717.744C186.492 719.147 187.136 720.964 187.389 722.16L185.986 722.643C185.779 721.447 185.158 719.584 184.514 718.158ZM179.477 717.836L180.972 718.112C180.65 720.274 180.075 722.505 179.339 723.977C179.04 723.793 178.35 723.471 177.982 723.31C178.741 721.907 179.201 719.86 179.477 717.836ZM182.122 715.651H183.686V725.909H182.122V715.651Z" fill="black"/>
<path d="M134.979 912.153C134.874 911.628 134.748 911.166 134.601 910.725L136.47 910.41C136.512 910.788 136.596 911.397 136.68 911.859C136.806 912.783 139.116 924.312 139.41 925.698C139.557 926.286 139.725 927 139.935 927.609L138.003 927.966C137.898 927.252 137.835 926.601 137.688 925.992C137.478 924.669 135.231 913.245 134.979 912.153ZM129.057 915.198C129.582 915.156 130.149 915.114 130.821 915.051C132.711 914.841 139.956 913.686 141.951 913.287C142.56 913.182 143.106 913.056 143.463 912.951L143.799 914.715C143.484 914.736 142.854 914.841 142.287 914.925C140.124 915.261 132.963 916.395 131.115 916.71C130.548 916.815 130.044 916.92 129.435 917.067L129.057 915.198ZM128.994 921.246C129.498 921.225 130.296 921.141 130.842 921.057C133.089 920.763 140.901 919.482 143.421 919.02C144.219 918.873 144.828 918.726 145.269 918.6L145.626 920.364C145.185 920.406 144.513 920.532 143.736 920.658C140.943 921.078 133.362 922.317 131.241 922.695C130.422 922.842 129.834 922.968 129.372 923.094L128.994 921.246ZM158.436 914.925C158.793 915.765 159.822 918.537 160.074 919.44L158.52 920.007C158.289 919.041 157.323 916.374 156.882 915.45L158.436 914.925ZM166.038 916.101C165.891 916.521 165.786 916.857 165.702 917.13C165.156 919.44 164.232 921.708 162.741 923.598C160.788 926.055 158.226 927.693 155.895 928.575L154.509 927.168C156.924 926.454 159.612 924.858 161.334 922.716C162.825 920.889 163.896 918.201 164.232 915.513L166.038 916.101ZM153.543 915.975C153.963 916.857 155.076 919.608 155.454 920.721L153.879 921.309C153.543 920.217 152.409 917.298 151.989 916.563L153.543 915.975ZM178.029 912.153C177.924 911.628 177.798 911.166 177.651 910.725L179.52 910.41C179.562 910.788 179.646 911.397 179.73 911.859C179.856 912.783 182.166 924.312 182.46 925.698C182.607 926.286 182.775 927 182.985 927.609L181.053 927.966C180.948 927.252 180.885 926.601 180.738 925.992C180.528 924.669 178.281 913.245 178.029 912.153ZM172.107 915.198C172.632 915.156 173.199 915.114 173.871 915.051C175.761 914.841 183.006 913.686 185.001 913.287C185.61 913.182 186.156 913.056 186.513 912.951L186.849 914.715C186.534 914.736 185.904 914.841 185.337 914.925C183.174 915.261 176.013 916.395 174.165 916.71C173.598 916.815 173.094 916.92 172.485 917.067L172.107 915.198ZM172.044 921.246C172.548 921.225 173.346 921.141 173.892 921.057C176.139 920.763 183.951 919.482 186.471 919.02C187.269 918.873 187.878 918.726 188.319 918.6L188.676 920.364C188.235 920.406 187.563 920.532 186.786 920.658C183.993 921.078 176.412 922.317 174.291 922.695C173.472 922.842 172.884 922.968 172.422 923.094L172.044 921.246ZM195.474 911.628C196.944 912.615 199.653 914.799 200.808 915.954L199.506 917.298C198.435 916.206 195.831 913.938 194.256 912.909L195.474 911.628ZM193.668 925.698C197.322 925.152 200.052 923.871 202.047 922.632C205.302 920.595 207.843 917.487 209.061 914.883L210.069 916.689C208.641 919.293 206.205 922.149 203.034 924.144C200.913 925.467 198.267 926.769 194.76 927.42L193.668 925.698ZM228.297 910.2C228.822 910.956 229.578 912.237 229.998 913.077L228.864 913.602C228.444 912.741 227.73 911.481 227.163 910.683L228.297 910.2ZM230.586 909.36C231.153 910.137 231.951 911.439 232.35 912.216L231.216 912.72C230.754 911.817 230.082 910.62 229.494 909.843L230.586 909.36ZM229.683 914.379C229.515 914.694 229.305 915.177 229.2 915.513C228.633 917.613 227.331 920.469 225.483 922.737C223.572 925.068 221.052 927 217.104 928.449L215.592 927.084C219.456 925.95 222.06 924.039 223.971 921.813C225.609 919.881 226.89 917.172 227.331 915.261H219.54L220.212 913.749C221.073 913.749 226.26 913.749 226.911 913.749C227.478 913.749 227.94 913.686 228.297 913.539L229.683 914.379ZM222.648 911.208C222.312 911.754 221.934 912.468 221.724 912.867C220.485 915.177 218.28 918.18 214.92 920.427L213.45 919.335C217.083 917.172 219.141 914.127 220.065 912.237C220.275 911.88 220.59 911.103 220.716 910.578L222.648 911.208ZM143.434 937.972C143.308 938.14 143.035 938.602 142.93 938.875C142.09 940.954 140.494 943.894 138.751 945.826C136.399 948.451 133.396 950.95 130.078 952.462L128.734 951.055C132.136 949.753 135.223 947.233 137.386 944.839C138.814 943.222 140.347 940.723 140.893 938.98C140.137 938.98 133.417 938.98 132.703 938.98C131.947 938.98 130.813 939.064 130.582 939.085V937.195C130.855 937.237 132.052 937.321 132.703 937.321C133.522 937.321 140.011 937.321 140.809 937.321C141.481 937.321 142.048 937.258 142.384 937.153L143.434 937.972ZM139.024 944.734C141.292 946.624 144.085 949.564 145.513 951.307L144.064 952.588C142.552 950.593 140.095 947.905 137.827 945.91L139.024 944.734ZM158.365 937.846C158.365 937.195 158.281 936.187 158.155 935.746H160.255C160.192 936.187 160.108 937.237 160.108 937.846C160.108 939.043 160.108 940.996 160.108 942.277C160.108 946.918 158.575 950.341 154.291 952.798L152.653 951.601C156.643 949.711 158.365 946.603 158.365 942.277C158.365 941.017 158.365 939.043 158.365 937.846ZM150.217 940.555C150.637 940.618 151.414 940.66 152.17 940.66C153.199 940.66 164.686 940.66 165.694 940.66C166.408 940.66 167.206 940.618 167.521 940.576V942.361C167.206 942.34 166.324 942.319 165.673 942.319C164.686 942.319 153.199 942.319 152.212 942.319C151.414 942.319 150.658 942.34 150.217 942.382V940.555ZM171.511 944.419C175.144 943.453 178.336 941.962 180.667 940.513C182.872 939.127 184.972 937.321 186.421 935.557L187.828 936.88C186.022 938.749 183.817 940.513 181.36 942.046C179.05 943.474 175.711 945.007 172.33 946.057L171.511 944.419ZM180.331 941.374L182.137 940.828V950.425C182.137 951.202 182.179 952.252 182.284 952.651H180.205C180.268 952.252 180.331 951.202 180.331 950.425V941.374ZM207.242 937.363C207.242 938.14 207.872 938.749 208.628 938.749C209.384 938.749 210.014 938.14 210.014 937.363C210.014 936.607 209.384 935.977 208.628 935.977C207.872 935.977 207.242 936.607 207.242 937.363ZM206.276 937.363C206.276 936.061 207.326 935.011 208.628 935.011C209.93 935.011 210.98 936.061 210.98 937.363C210.98 938.665 209.93 939.715 208.628 939.715C207.326 939.715 206.276 938.665 206.276 937.363ZM195.377 945.7C196.301 943.516 197.162 940.324 197.456 937.909L199.325 938.287C199.178 938.749 199.031 939.379 198.926 939.82C198.653 941.122 197.918 944.23 197.036 946.393C196.259 948.304 195.104 950.467 193.928 952.168L192.143 951.412C193.466 949.648 194.663 947.443 195.377 945.7ZM205.73 944.902C204.89 942.739 203.588 939.82 202.685 938.245L204.386 937.678C205.205 939.211 206.549 942.109 207.452 944.314C208.292 946.393 209.405 949.606 209.972 951.517L208.103 952.105C207.578 949.984 206.591 947.128 205.73 944.902ZM214.466 942.907C215.117 942.97 216.209 943.033 217.406 943.033C218.939 943.033 227.36 943.033 228.914 943.033C229.964 943.033 230.699 942.949 231.182 942.907V944.965C230.741 944.944 229.859 944.881 228.935 944.881C227.339 944.881 218.96 944.881 217.406 944.881C216.251 944.881 215.138 944.923 214.466 944.965V942.907Z" fill="black"/>
<path d="M126.941 240V238.252H130.69V225.694H127.677V224.337C129.195 224.084 130.276 223.693 131.173 223.141H132.783V238.252H136.187V240H126.941ZM143.931 220.611L145.656 221.048C144.391 224.452 142.344 227.649 140.205 229.719C139.86 229.42 139.147 228.845 138.71 228.615C140.895 226.706 142.804 223.716 143.931 220.611ZM143.563 223.463H158.398V225.142H142.735L143.563 223.463ZM142.436 228.684H157.892V230.294H144.161V235.745H142.436V228.684ZM138.641 234.871H159.479V236.55H138.641V234.871ZM149.336 224.337H151.107V241.863H149.336V224.337ZM164.976 240C165.275 233.629 166.425 229.535 169.737 224.935H161.572V223.141H172.106V224.406C168.15 229.489 167.437 233.422 167.161 240H164.976ZM185.163 227.787H192.615V229.374H185.163V227.787ZM185.163 233.629H192.615V235.193H185.163V233.629ZM184.266 221.991H193.535V240.598H191.81V223.555H185.945V240.598H184.266V221.991ZM181.851 239.609H195.306V241.196H181.851V239.609ZM177.573 220.703L179.114 221.278C178.24 222.98 177.136 225.027 176.239 226.269L175.043 225.763C175.917 224.429 176.975 222.221 177.573 220.703ZM180.356 223.325L181.851 223.969C180.241 226.545 177.987 229.857 176.239 231.835L175.135 231.26C176.906 229.213 179.091 225.763 180.356 223.325ZM173.939 225.533L174.813 224.383C176.101 225.464 177.55 226.982 178.171 227.994L177.251 229.305C176.63 228.224 175.181 226.637 173.939 225.533ZM179.62 228.661L180.908 228.109C181.874 229.581 182.863 231.559 183.208 232.824L181.828 233.468C181.483 232.18 180.563 230.179 179.62 228.661ZM173.893 230.984C175.963 230.915 179.022 230.8 182.058 230.662V232.065C179.137 232.249 176.216 232.41 174.031 232.525L173.893 230.984ZM180.195 234.158L181.506 233.744C182.173 235.147 182.817 236.964 183.07 238.16L181.667 238.643C181.46 237.447 180.839 235.584 180.195 234.158ZM175.158 233.836L176.653 234.112C176.331 236.274 175.756 238.505 175.02 239.977C174.721 239.793 174.031 239.471 173.663 239.31C174.422 237.907 174.882 235.86 175.158 233.836ZM177.803 231.651H179.367V241.909H177.803V231.651Z" fill="black"/>
<path d="M138.275 280.25C138.9 281.15 139.775 282.6 140.275 283.6L138.925 284.2C138.425 283.2 137.625 281.775 136.95 280.825L138.275 280.25ZM141.225 279.55C141.9 280.475 142.825 281.95 143.3 282.875L141.95 283.475C141.4 282.375 140.625 281.05 139.925 280.125L141.225 279.55ZM133.025 280.75C132.975 281.1 132.875 282 132.875 282.525C132.875 283.85 132.875 285.95 132.875 287.175C132.875 289.2 132.875 297.3 132.875 299.1C132.875 300.4 132.25 301.075 130.725 301.075C129.675 301.075 128.2 301.025 127.175 300.9L127 298.925C128.1 299.125 129.225 299.2 129.9 299.2C130.575 299.2 130.85 298.925 130.85 298.25C130.875 296.9 130.875 288.35 130.875 287.175C130.875 286.325 130.875 283.85 130.875 282.525C130.875 281.975 130.775 281.125 130.7 280.75H133.025ZM121.8 284.95C122.5 285.05 123.125 285.1 123.9 285.1C125.375 285.1 138 285.1 139.5 285.1C140.075 285.1 140.9 285.05 141.525 284.975V287.05C140.875 287 140.125 286.975 139.525 286.975C138.025 286.975 125.45 286.975 123.925 286.975C123.15 286.975 122.45 287 121.8 287.075V284.95ZM127.55 290.85C126.475 292.975 124.15 296.175 122.725 297.7L121 296.525C122.675 295 124.8 292.025 125.775 290L127.55 290.85ZM137.975 290C139.325 291.6 141.3 294.725 142.3 296.55L140.475 297.575C139.475 295.6 137.6 292.5 136.275 290.925L137.975 290ZM144.775 289.175C145.55 289.25 146.85 289.325 148.275 289.325C150.1 289.325 160.125 289.325 161.975 289.325C163.225 289.325 164.1 289.225 164.675 289.175V291.625C164.15 291.6 163.1 291.525 162 291.525C160.1 291.525 150.125 291.525 148.275 291.525C146.9 291.525 145.575 291.575 144.775 291.625V289.175ZM178.075 299.475C178.175 299.1 178.25 298.575 178.25 298.075C178.25 296.925 178.25 284.675 178.25 283.1C178.25 282.15 178.125 281.45 178.125 281.25H180.425C180.4 281.45 180.3 282.175 180.3 283.125C180.3 284.675 180.3 296.775 180.3 297.525C182.625 296.475 185.7 294.2 187.6 291.375L188.8 293.1C186.625 296.025 183.175 298.575 180.275 300.025C179.85 300.225 179.6 300.45 179.4 300.575L178.075 299.475ZM166.625 299.375C168.75 297.875 170.225 295.65 170.975 293.225C171.725 290.925 171.725 285.95 171.725 283.15C171.725 282.425 171.675 281.875 171.55 281.35H173.85C173.825 281.625 173.725 282.4 173.725 283.125C173.725 285.9 173.65 291.275 172.975 293.775C172.225 296.45 170.625 298.875 168.525 300.625L166.625 299.375ZM199.675 280H201.45V282.55C201.45 284.75 200.825 287.5 198.05 289.325C197.8 288.95 197.15 288.225 196.775 287.975C199.275 286.4 199.675 284.25 199.675 282.525V280ZM200.6 280H207V281.75H200.6V280ZM206.15 280H207.95V286.025C207.95 286.575 208.025 286.65 208.475 286.65C208.675 286.65 209.575 286.65 209.85 286.65C210.3 286.65 210.4 286.3 210.45 283.7C210.825 284.025 211.55 284.275 212.05 284.425C211.9 287.475 211.45 288.275 210.05 288.275C209.7 288.275 208.5 288.275 208.175 288.275C206.6 288.275 206.15 287.8 206.15 286.025V280ZM198.175 289.825H208.85V291.55H198.175V289.825ZM208.3 289.825H208.675L209.025 289.75L210.225 290.275C208.175 296.925 202.9 300.475 196.925 302.05C196.75 301.55 196.3 300.75 195.95 300.35C201.525 299.1 206.55 295.775 208.3 290.15V289.825ZM200.7 291.45C202.55 295.975 206.5 299.15 212.1 300.325C211.7 300.725 211.15 301.5 210.875 302C205.1 300.6 201.125 297.15 199.025 291.975L200.7 291.45ZM188.55 292.425C190.65 291.875 193.825 290.9 196.925 289.95L197.15 291.575C194.35 292.575 191.425 293.6 189.175 294.375L188.55 292.425ZM188.875 283.95H197.175V285.7H188.875V283.95ZM192.525 279.025H194.35V299.8C194.35 300.85 194.1 301.375 193.45 301.65C192.8 301.95 191.8 302 190.125 301.975C190.05 301.525 189.775 300.75 189.55 300.275C190.675 300.3 191.725 300.3 192.05 300.275C192.375 300.275 192.525 300.175 192.525 299.8V279.025ZM228.975 280.9C228.95 281.3 228.925 281.8 228.9 282.35C228.875 283.3 228.975 287.5 228.975 288.9C228.975 294.65 228.975 298.725 223.675 301.85L221.85 300.425C222.625 300.125 223.65 299.475 224.275 298.875C226.95 296.55 227.075 293.7 227.075 288.9C227.075 287.3 226.975 283.425 226.9 282.375C226.85 281.825 226.75 281.275 226.675 280.9H228.975ZM220.125 286.05C221.2 286.225 222.8 286.35 224.15 286.35C227.225 286.35 230.775 286.125 233.275 285.575V287.6C230.875 288 227.35 288.2 224.175 288.2C222.95 288.2 221.2 288.125 220.125 288.05V286.05ZM216.6 281.275C216.45 281.725 216.275 282.425 216.175 282.875C215.375 286.525 214.525 292 215.475 296.075C215.825 295.025 216.35 293.5 216.8 292.25L217.875 292.9C217.275 294.65 216.525 297.2 216.25 298.45C216.175 298.8 216.125 299.275 216.15 299.575C216.15 299.8 216.2 300.15 216.225 300.4L214.525 300.625C214.025 299.075 213.2 295.825 213.2 292.7C213.2 288.625 213.85 284.8 214.15 282.7C214.25 282.125 214.275 281.475 214.275 281.025L216.6 281.275ZM230.975 280.225C231.425 281.15 232.075 282.675 232.425 283.7L231.15 284.125C230.8 283.05 230.25 281.575 229.75 280.625L230.975 280.225ZM233.475 279.475C233.95 280.375 234.575 281.9 234.95 282.9L233.7 283.325C233.325 282.225 232.775 280.8 232.25 279.85L233.475 279.475Z" fill="black"/>
<path d="M119.1 419.448H147.942V421.758H119.1V419.448ZM132.069 416.313H134.643V446.64H132.069V416.313ZM131.31 435.222L133.389 436.146C130.287 440.304 124.842 444.165 120.024 446.145C119.628 445.518 118.869 444.561 118.275 444.066C123.093 442.383 128.505 438.852 131.31 435.222ZM135.468 435.255C138.306 438.885 143.817 442.416 148.701 444.066C148.107 444.561 147.348 445.518 146.952 446.211C142.068 444.264 136.557 440.304 133.455 436.179L135.468 435.255ZM124.413 431.526V434.694H142.761V431.526H124.413ZM124.413 426.51V429.645H142.761V426.51H124.413ZM122.004 424.563H145.269V436.674H122.004V424.563ZM175.398 422.088C175.167 422.55 175.035 423.078 174.903 423.738C174.177 427.203 172.593 432.516 169.953 435.915C166.95 439.776 163.023 442.845 156.984 444.726L154.74 442.251C161.142 440.667 164.838 437.862 167.61 434.331C169.953 431.328 171.471 426.741 171.933 423.573C170.019 423.573 156.951 423.573 155.037 423.573C153.717 423.573 152.595 423.639 151.77 423.672V420.735C152.661 420.867 153.981 420.966 155.07 420.966C156.951 420.966 170.118 420.966 171.603 420.966C172.098 420.966 172.758 420.933 173.385 420.801L175.398 422.088ZM183.714 426.972C184.44 427.038 185.463 427.104 185.991 427.104H201.204C202.029 427.104 202.854 427.038 203.514 426.972V429.612C202.821 429.546 201.93 429.513 201.204 429.513H186.024C185.496 429.513 184.407 429.546 183.714 429.612V426.972ZM192.096 443.01V428.457H194.736V443.01H192.096ZM182.13 441.492C182.889 441.591 183.747 441.624 184.473 441.624H202.722C203.514 441.624 204.273 441.558 204.933 441.492V444.231C204.273 444.165 203.25 444.132 202.722 444.132H184.473C183.747 444.132 182.922 444.165 182.13 444.231V441.492ZM233.412 421.956C233.214 422.22 232.785 422.946 232.62 423.375C231.3 426.642 228.792 431.262 226.053 434.298C222.357 438.423 217.638 442.35 212.424 444.726L210.312 442.515C215.658 440.469 220.509 436.509 223.908 432.747C226.152 430.206 228.561 426.279 229.419 423.54C228.231 423.54 217.671 423.54 216.549 423.54C215.361 423.54 213.579 423.672 213.216 423.705V420.735C213.645 420.801 215.526 420.933 216.549 420.933C217.836 420.933 228.033 420.933 229.287 420.933C230.343 420.933 231.234 420.834 231.762 420.669L233.412 421.956ZM226.482 432.582C230.046 435.552 234.435 440.172 236.679 442.911L234.402 444.924C232.026 441.789 228.165 437.565 224.601 434.43L226.482 432.582ZM138.834 461.715H161.703V464.124H138.834V461.715ZM137.382 471.384H160.515V473.76H137.382V471.384ZM133.785 482.175H163.254V484.584H133.785V482.175ZM147.249 455.313H149.79V483.396H147.249V455.313ZM139.824 455.841L142.365 456.402C140.913 461.517 138.603 466.401 135.963 469.569C135.468 469.14 134.346 468.414 133.719 468.084C136.425 465.147 138.57 460.56 139.824 455.841ZM172.758 466.467H193.647V468.678H172.758V466.467ZM174.474 459.669H192.063V461.814H174.474V459.669ZM183.351 473.628H192.261V475.806H183.351V473.628ZM182.229 468.414H184.605V483.396L182.229 482.571V468.414ZM181.998 455.247H184.341V467.787H181.998V455.247ZM176.916 475.773C178.83 481.812 183.021 482.901 188.202 482.934C189.027 482.934 192.987 482.934 194.109 482.901C193.779 483.495 193.449 484.584 193.317 485.211H188.004C181.833 485.211 177.411 483.726 175.002 476.499L176.916 475.773ZM175.299 471.351L177.708 471.549C177.213 477.753 175.794 482.538 172.692 485.739C172.329 485.31 171.339 484.551 170.778 484.188C173.748 481.416 174.903 476.895 175.299 471.351ZM170.811 462.012L173.055 462.837C170.778 466.797 167.313 470.79 164.079 473.43C163.848 472.902 163.122 471.747 162.66 471.219C165.729 468.975 168.864 465.51 170.811 462.012ZM170.052 455.313L172.263 456.171C170.349 458.943 167.247 462.045 164.442 464.025C164.112 463.53 163.485 462.672 163.056 462.21C165.63 460.461 168.6 457.656 170.052 455.313ZM167.841 468.15L169.854 466.137L170.184 466.302V485.673H167.841V468.15ZM195.231 482.043C200.973 481.911 210.18 481.581 218.76 481.185L218.661 483.462C210.345 483.891 201.402 484.287 195.561 484.485L195.231 482.043ZM194.934 471.846H222.291V474.189H194.934V471.846ZM200.577 465.543H216.351V467.853H200.577V465.543ZM203.976 473.331L206.748 474.123C205.23 477.291 203.316 481.152 201.699 483.627L199.488 482.901C201.039 480.327 202.986 476.235 203.976 473.331ZM211.83 476.829L213.942 475.707C216.978 478.314 220.212 481.878 221.763 484.386L219.519 485.739C218.034 483.264 214.767 479.469 211.83 476.829ZM208.398 457.722C205.692 461.748 200.28 466.269 194.67 469.074C194.373 468.48 193.746 467.589 193.218 467.061C198.894 464.355 204.405 459.57 206.979 455.346H209.52C213.018 460.23 218.793 464.553 224.04 466.698C223.446 467.292 222.852 468.183 222.423 468.909C217.275 466.434 211.467 462.012 208.398 457.722Z" fill="black"/>
<path d="M161.932 563.752C161.708 564.2 161.58 564.712 161.452 565.352C160.748 568.712 159.212 573.864 156.652 577.16C153.74 580.904 149.932 583.88 144.076 585.704L141.9 583.304C148.108 581.768 151.692 579.048 154.38 575.624C156.652 572.712 158.124 568.264 158.572 565.192C156.716 565.192 144.044 565.192 142.188 565.192C140.908 565.192 139.82 565.256 139.02 565.288V562.44C139.884 562.568 141.164 562.664 142.22 562.664C144.044 562.664 156.812 562.664 158.252 562.664C158.732 562.664 159.372 562.632 159.98 562.504L161.932 563.752ZM184.332 565.448C184.204 566.12 184.204 566.888 184.204 567.624C184.268 570.44 184.428 580.168 184.492 584.808C184.492 586.184 183.468 586.984 182.06 586.984C180.812 586.984 178.7 586.888 177.452 586.824L177.292 584.456C178.604 584.648 180.268 584.776 181.196 584.776C181.804 584.776 182.092 584.424 182.092 583.816C182.092 580.04 181.932 570.44 181.804 567.624C181.804 566.984 181.74 566.152 181.612 565.448H184.332ZM169.9 570.056C170.668 570.184 171.532 570.216 172.3 570.216C173.644 570.216 187.532 570.216 188.844 570.216C189.516 570.216 190.54 570.152 190.988 570.056V572.584C190.444 572.552 189.548 572.52 188.94 572.52C187.788 572.52 173.484 572.52 172.332 572.52C171.5 572.52 170.668 572.552 169.9 572.616V570.056ZM169.068 582.312C174.22 579.848 179.468 575.144 181.324 571.784L182.636 571.816L182.668 573.736C180.972 576.872 175.724 581.704 170.828 584.264L169.068 582.312ZM203.372 582.184C203.372 580.392 203.372 566.248 203.372 563.592C203.372 562.664 203.308 561.256 203.148 560.232H206.284C206.156 561.224 206.06 562.6 206.06 563.592C206.06 568.552 206.092 580.68 206.092 582.184C206.092 583.208 206.156 584.936 206.284 585.992H203.18C203.34 584.968 203.372 583.368 203.372 582.184ZM205.484 568.648C209.708 569.864 216.172 572.328 219.724 574.056L218.604 576.776C214.956 574.824 208.972 572.552 205.484 571.464V568.648ZM146.833 598.704C146.513 599.312 146.065 600.4 145.809 601.072C144.593 604.24 142.673 608.4 140.049 611.728C136.977 615.632 132.817 619.856 126.769 622.992L124.593 621.008C130.545 618.16 134.641 614.352 137.937 610.16C140.561 606.768 142.161 603.216 143.249 600.08C143.473 599.44 143.761 598.384 143.921 597.712L146.833 598.704ZM129.937 602.48C133.105 604.496 137.553 607.696 139.985 609.648C143.185 612.272 146.353 615.056 148.881 617.808L146.865 620.016C144.209 616.944 141.425 614.416 138.225 611.728C135.921 609.808 131.761 606.64 128.241 604.496L129.937 602.48ZM156.561 598.64C157.457 598.736 158.417 598.8 159.441 598.8C161.297 598.8 168.753 598.8 170.545 598.8C171.441 598.8 172.593 598.736 173.521 598.64V601.296C172.561 601.232 171.441 601.168 170.545 601.168C168.753 601.168 161.297 601.168 159.505 601.168C158.417 601.168 157.393 601.232 156.561 601.296V598.64ZM152.753 606.672C153.617 606.768 154.545 606.832 155.537 606.832C157.393 606.832 174.769 606.832 176.465 606.832C177.137 606.832 178.193 606.768 178.993 606.672V609.328C178.289 609.264 177.265 609.232 176.465 609.232C174.769 609.232 157.393 609.232 155.537 609.232C154.577 609.232 153.617 609.264 152.753 609.328V606.672ZM167.825 607.952C167.825 611.984 167.313 615.312 165.905 618C164.721 620.144 162.321 622.448 159.601 623.824L157.233 622.096C159.697 621.04 162.001 619.216 163.281 617.168C164.881 614.64 165.105 611.504 165.137 607.984L167.825 607.952ZM175.185 596.016C175.985 597.168 177.137 599.12 177.777 600.4L176.049 601.168C175.441 599.888 174.353 597.968 173.489 596.752L175.185 596.016ZM178.673 594.736C179.537 595.92 180.753 597.904 181.361 599.088L179.665 599.856C178.961 598.48 177.905 596.656 177.009 595.472L178.673 594.736ZM180.807 613.776C185.031 612.752 189.735 610.512 192.359 608.912C195.367 607.088 198.311 604.432 199.975 602.416L201.959 604.336C200.103 606.32 196.775 609.104 193.447 611.12C190.759 612.72 186.311 614.832 182.055 616.144L180.807 613.776ZM192.071 610.384L194.727 609.712V621.712C194.727 622.672 194.759 624.016 194.887 624.496H191.911C191.975 624.016 192.071 622.672 192.071 621.712V610.384ZM235.847 600.4C235.591 600.688 235.207 601.168 234.983 601.52C233.703 603.696 230.663 607.824 227.015 610.352L224.871 608.656C227.847 606.96 230.855 603.504 231.879 601.52C229.639 601.52 215.175 601.52 213.639 601.52C212.455 601.52 211.271 601.584 210.023 601.68V598.8C211.143 598.96 212.455 599.088 213.639 599.088C215.175 599.088 230.119 599.088 232.039 599.088C232.647 599.088 233.799 598.992 234.247 598.864L235.847 600.4ZM223.047 604.592C223.047 613.264 222.279 619.12 214.119 623.216L211.783 621.296C212.647 621.008 213.767 620.464 214.663 619.856C219.591 616.816 220.295 612.272 220.295 606.928C220.295 606.16 220.295 605.456 220.167 604.592H223.047ZM182.7 634.04H192.3V636.312H185.036V661.592H182.7V634.04ZM165.644 635.672H180.94V637.816H165.644V635.672ZM164.812 644.536H181.356V646.744H164.812V644.536ZM172.076 632.248H174.412V636.984H172.076V632.248ZM167.628 638.936L169.644 638.488C170.348 640.088 170.956 642.232 171.148 643.64L169.004 644.152C168.844 642.744 168.3 640.568 167.628 638.936ZM176.812 638.264L179.116 638.808C178.412 640.696 177.644 642.84 176.94 644.248L175.02 643.736C175.66 642.264 176.428 639.896 176.812 638.264ZM167.82 657.592H178.348V659.736H167.82V657.592ZM166.956 649.528H179.564V661.432H177.26V651.672H169.196V661.592H166.956V649.528ZM191.66 634.04H192.14L192.524 633.944L194.284 635.064C192.972 638.072 191.308 641.784 189.836 644.728C193.068 647.704 193.836 650.232 193.868 652.536C193.868 654.488 193.42 655.992 192.3 656.76C191.724 657.112 191.02 657.336 190.188 657.464C189.388 657.56 188.332 657.528 187.404 657.496C187.372 656.824 187.148 655.8 186.732 655.128C187.66 655.192 188.588 655.224 189.228 655.192C189.772 655.16 190.22 655.032 190.604 654.808C191.308 654.392 191.532 653.464 191.532 652.28C191.5 650.264 190.572 647.864 187.34 645.048C188.972 641.752 190.7 637.336 191.66 634.808V634.04Z" fill="black"/>
<path d="M148.332 740.912C148.268 741.36 148.14 742.512 148.14 743.216C148.14 744.912 148.14 747.6 148.14 749.136C148.14 751.76 148.14 762.128 148.14 764.4C148.14 766.096 147.34 766.96 145.42 766.96C144.044 766.96 142.156 766.864 140.844 766.736L140.62 764.176C142.028 764.432 143.468 764.56 144.332 764.56C145.196 764.56 145.548 764.176 145.58 763.344C145.58 761.584 145.58 750.672 145.58 749.136C145.58 748.048 145.58 744.88 145.58 743.184C145.58 742.512 145.452 741.392 145.356 740.912H148.332ZM133.964 746.32C134.86 746.416 135.66 746.48 136.684 746.48C138.572 746.48 154.732 746.48 156.62 746.48C157.356 746.48 158.444 746.448 159.212 746.32V748.976C158.38 748.912 157.42 748.912 156.652 748.912C154.732 748.912 138.636 748.912 136.684 748.912C135.724 748.912 134.796 748.944 133.964 749.008V746.32ZM141.324 753.84C139.948 756.592 136.972 760.656 135.148 762.64L132.972 761.136C135.084 759.152 137.836 755.344 139.084 752.752L141.324 753.84ZM154.7 752.784C156.396 754.832 158.956 758.832 160.236 761.136L157.868 762.448C156.588 759.952 154.188 755.952 152.524 753.936L154.7 752.784ZM174.956 747.6C175.5 748.88 177.068 753.104 177.452 754.48L175.084 755.344C174.732 753.872 173.26 749.808 172.588 748.4L174.956 747.6ZM186.54 749.392C186.316 750.032 186.156 750.544 186.028 750.96C185.196 754.48 183.788 757.936 181.516 760.816C178.54 764.56 174.636 767.056 171.084 768.4L168.972 766.256C172.652 765.168 176.748 762.736 179.372 759.472C181.644 756.688 183.276 752.592 183.788 748.496L186.54 749.392ZM167.5 749.2C168.14 750.544 169.836 754.736 170.412 756.432L168.012 757.328C167.5 755.664 165.772 751.216 165.132 750.096L167.5 749.2ZM199.372 763.184C199.372 761.392 199.372 747.248 199.372 744.592C199.372 743.664 199.308 742.256 199.148 741.232H202.284C202.156 742.224 202.06 743.6 202.06 744.592C202.06 749.552 202.092 761.68 202.092 763.184C202.092 764.208 202.156 765.936 202.284 766.992H199.18C199.34 765.968 199.372 764.368 199.372 763.184ZM201.484 749.648C205.708 750.864 212.172 753.328 215.724 755.056L214.604 757.776C210.956 755.824 204.972 753.552 201.484 752.464V749.648ZM151.372 779.992C152.172 781.144 153.548 783.288 154.284 784.824L152.46 785.656C151.66 783.96 150.636 782.2 149.58 780.76L151.372 779.992ZM155.212 778.392C156.076 779.512 157.484 781.624 158.22 783.128L156.428 784.024C155.596 782.328 154.54 780.632 153.484 779.224L155.212 778.392ZM140.14 800.6C140.14 798.84 140.14 784.696 140.14 782.008C140.14 781.08 140.044 779.672 139.884 778.68H143.02C142.924 779.64 142.796 781.048 142.796 782.008C142.796 787 142.828 799.096 142.828 800.6C142.828 801.624 142.892 803.352 143.02 804.408H139.916C140.076 803.384 140.14 801.816 140.14 800.6ZM142.22 787.064C146.476 788.28 152.908 790.744 156.46 792.504L155.34 795.192C151.692 793.24 145.708 790.968 142.22 789.88V787.064ZM174.956 784.6C175.5 785.88 177.068 790.104 177.452 791.48L175.084 792.344C174.732 790.872 173.26 786.808 172.588 785.4L174.956 784.6ZM186.54 786.392C186.316 787.032 186.156 787.544 186.028 787.96C185.196 791.48 183.788 794.936 181.516 797.816C178.54 801.56 174.636 804.056 171.084 805.4L168.972 803.256C172.652 802.168 176.748 799.736 179.372 796.472C181.644 793.688 183.276 789.592 183.788 785.496L186.54 786.392ZM167.5 786.2C168.14 787.544 169.836 791.736 170.412 793.432L168.012 794.328C167.5 792.664 165.772 788.216 165.132 787.096L167.5 786.2ZM213.1 777.4C213.9 778.552 215.052 780.504 215.692 781.784L213.964 782.584C213.324 781.272 212.236 779.352 211.372 778.136L213.1 777.4ZM216.588 776.12C217.452 777.304 218.668 779.288 219.276 780.472L217.548 781.24C216.844 779.864 215.82 778.04 214.924 776.856L216.588 776.12ZM215.212 783.768C214.956 784.248 214.636 784.984 214.476 785.496C213.612 788.696 211.628 793.048 208.812 796.504C205.9 800.056 202.06 803 196.044 805.208L193.74 803.128C199.628 801.4 203.596 798.488 206.508 795.096C209.004 792.152 210.956 788.024 211.628 785.112H199.756L200.78 782.808C202.092 782.808 209.996 782.808 210.988 782.808C211.852 782.808 212.556 782.712 213.1 782.488L215.212 783.768ZM204.492 778.936C203.98 779.768 203.404 780.856 203.084 781.464C201.196 784.984 197.836 789.56 192.716 792.984L190.476 791.32C196.012 788.024 199.148 783.384 200.556 780.504C200.876 779.96 201.356 778.776 201.548 777.976L204.492 778.936Z" fill="black"/>
<path d="M122.939 882V880.252H126.688V867.694H123.675V866.337C125.193 866.084 126.274 865.693 127.171 865.141H128.781V880.252H132.185V882H122.939ZM139.929 862.611L141.654 863.048C140.389 866.452 138.342 869.649 136.203 871.719C135.858 871.42 135.145 870.845 134.708 870.615C136.893 868.706 138.802 865.716 139.929 862.611ZM139.561 865.463H154.396V867.142H138.733L139.561 865.463ZM138.434 870.684H153.89V872.294H140.159V877.745H138.434V870.684ZM134.639 876.871H155.477V878.55H134.639V876.871ZM145.334 866.337H147.105V883.863H145.334V866.337ZM158.467 882V880.252H162.216V867.694H159.203V866.337C160.721 866.084 161.802 865.693 162.699 865.141H164.309V880.252H167.713V882H158.467ZM181.16 869.787H188.612V871.374H181.16V869.787ZM181.16 875.629H188.612V877.193H181.16V875.629ZM180.263 863.991H189.532V882.598H187.807V865.555H181.942V882.598H180.263V863.991ZM177.848 881.609H191.303V883.196H177.848V881.609ZM173.57 862.703L175.111 863.278C174.237 864.98 173.133 867.027 172.236 868.269L171.04 867.763C171.914 866.429 172.972 864.221 173.57 862.703ZM176.353 865.325L177.848 865.969C176.238 868.545 173.984 871.857 172.236 873.835L171.132 873.26C172.903 871.213 175.088 867.763 176.353 865.325ZM169.936 867.533L170.81 866.383C172.098 867.464 173.547 868.982 174.168 869.994L173.248 871.305C172.627 870.224 171.178 868.637 169.936 867.533ZM175.617 870.661L176.905 870.109C177.871 871.581 178.86 873.559 179.205 874.824L177.825 875.468C177.48 874.18 176.56 872.179 175.617 870.661ZM169.89 872.984C171.96 872.915 175.019 872.8 178.055 872.662V874.065C175.134 874.249 172.213 874.41 170.028 874.525L169.89 872.984ZM176.192 876.158L177.503 875.744C178.17 877.147 178.814 878.964 179.067 880.16L177.664 880.643C177.457 879.447 176.836 877.584 176.192 876.158ZM171.155 875.836L172.65 876.112C172.328 878.274 171.753 880.505 171.017 881.977C170.718 881.793 170.028 881.471 169.66 881.31C170.419 879.907 170.879 877.86 171.155 875.836ZM173.8 873.651H175.364V883.909H173.8V873.651Z" fill="black"/>
<path d="M344.436 360.762L348.776 361.94C342.142 377.998 330.982 389.53 316.536 396.784C315.916 395.792 314.428 393.932 313.436 393.064C327.696 386.554 338.422 375.518 344.436 360.762ZM315.668 376.882L318.148 373.782C329.122 378.122 342.514 385.438 349.086 391.328L346.296 394.986C339.91 389.096 326.704 381.408 315.668 376.882ZM315.048 362.312L318.582 360.762C321.062 364.048 323.604 368.512 324.472 371.488L320.69 373.224C319.884 370.186 317.466 365.66 315.048 362.312ZM326.89 360.142L330.61 358.84C332.78 362.436 334.764 367.272 335.322 370.372L331.416 371.86C330.92 368.698 328.998 363.8 326.89 360.142ZM306.616 351.834H357.89V405.836H353.054V356.298H311.266V405.836H306.616V351.834ZM309.22 398.334H355.1V402.798H309.22V398.334ZM368.926 386.802H408.854V406.022H404.142V390.088H373.452V406.146H368.926V386.802ZM371.282 393.808H405.94V396.908H371.282V393.808ZM371.282 400.876H405.94V404.1H371.282V400.876ZM385.976 348.858H390.688V382.524H385.976V348.858ZM367.624 353.198H408.544V370.124H366.88V367.086H403.894V356.298H367.624V353.198ZM361.052 359.894H416.108V363.366H361.052V359.894ZM365.206 373.596H411.954V376.758H365.206V373.596ZM360.928 380.416H416.17V383.888H360.928V380.416ZM458.888 361.816L463.786 363.242C455.974 385.996 441.9 398.768 419.332 406.084C418.836 404.906 417.348 402.674 416.356 401.558C438.49 395.234 451.944 383.082 458.888 361.816ZM430.74 362.126C437.436 381.966 451.386 396.226 473.768 401.434C472.652 402.55 471.164 404.658 470.42 406.022C447.418 400.008 433.778 385.252 426.152 363.552L430.74 362.126ZM417.1 359.46H473.148V364.048H417.1V359.46ZM442.52 348.92H447.294V362.25H442.52V348.92ZM480.216 367.954H522.81V372.232H480.216V367.954ZM473.52 379.982H529.258V384.322H473.52V379.982ZM475.566 400.008C486.726 399.636 505.016 398.706 521.88 397.714L521.756 402.054C505.326 403.17 487.656 404.224 476.062 404.844L475.566 400.008ZM508.178 388.786L512.146 386.554C518.222 391.638 525.104 398.892 528.08 404.1L523.802 406.642C521.012 401.558 514.316 394.056 508.178 388.786ZM491.128 382.152L496.398 383.702C493.608 389.84 490.012 397.342 487.098 402.054L483.006 400.566C485.796 395.73 489.268 387.732 491.128 382.152ZM474.078 354.934H528.638V359.274H474.078V354.934ZM488.152 348.92H492.74V365.04H488.152V348.92ZM509.666 348.92H514.316V365.04H509.666V348.92ZM564.04 352.64H582.64V357.042H568.566V406.022H564.04V352.64ZM530.994 355.802H560.63V359.956H530.994V355.802ZM529.382 372.976H561.436V377.254H529.382V372.976ZM543.456 349.168H547.982V358.344H543.456V349.168ZM534.838 362.126L538.744 361.258C540.108 364.358 541.286 368.512 541.658 371.24L537.504 372.232C537.194 369.504 536.14 365.288 534.838 362.126ZM552.632 360.824L557.096 361.878C555.732 365.536 554.244 369.69 552.88 372.418L549.16 371.426C550.4 368.574 551.888 363.986 552.632 360.824ZM535.21 398.272H555.608V402.426H535.21V398.272ZM533.536 382.648H557.964V405.712H553.5V386.802H537.876V406.022H533.536V382.648ZM581.4 352.64H582.33L583.074 352.454L586.484 354.624C583.942 360.452 580.718 367.644 577.866 373.348C584.128 379.114 585.616 384.012 585.678 388.476C585.678 392.258 584.81 395.172 582.64 396.66C581.524 397.342 580.16 397.776 578.548 398.024C576.998 398.21 574.952 398.148 573.154 398.086C573.092 396.784 572.658 394.8 571.852 393.498C573.65 393.622 575.448 393.684 576.688 393.622C577.742 393.56 578.61 393.312 579.354 392.878C580.718 392.072 581.152 390.274 581.152 387.98C581.09 384.074 579.292 379.424 573.03 373.968C576.192 367.582 579.54 359.026 581.4 354.128V352.64Z" fill="black"/>
<rect opacity="0.9" x="251" width="195.5" height="106" fill="#D1D1D1"/>
<rect opacity="0.9" x="458.5" width="195.5" height="106" fill="#D1D1D1"/>
<path d="M280.175 30.178C280.175 31.251 281.016 32.092 282.089 32.092C283.133 32.092 284.003 31.251 284.003 30.178C284.003 29.134 283.133 28.264 282.089 28.264C281.016 28.264 280.175 29.134 280.175 30.178ZM278.841 30.178C278.841 28.38 280.291 26.93 282.089 26.93C283.887 26.93 285.337 28.38 285.337 30.178C285.337 31.976 283.887 33.426 282.089 33.426C280.291 33.426 278.841 31.976 278.841 30.178ZM281.364 32.121C281.161 32.527 281.045 33.02 280.929 33.571C280.291 36.616 278.899 41.314 276.579 44.272C273.94 47.694 270.489 50.362 265.182 52.044L263.21 49.869C268.836 48.448 272.084 45.983 274.52 42.88C276.579 40.27 277.913 36.21 278.319 33.426C276.637 33.426 265.153 33.426 263.471 33.426C262.311 33.426 261.325 33.484 260.6 33.542V30.961C261.383 31.048 262.543 31.164 263.5 31.164C265.153 31.164 276.724 31.164 278.029 31.164C278.493 31.164 279.044 31.135 279.595 30.99L281.364 32.121ZM287.454 31.135C288.585 31.193 289.339 31.193 290.035 31.193C291.572 31.193 304.187 31.193 305.608 31.193C306.217 31.193 307.261 31.193 308.16 31.164C308.102 31.86 308.102 32.672 308.102 33.397C308.102 34.76 308.102 46.592 308.102 47.694C308.102 48.622 308.131 50.884 308.16 51.203H305.637C305.666 50.884 305.695 49.231 305.695 48.013C305.695 46.94 305.695 33.484 305.695 33.484H289.861C289.861 33.484 289.861 46.824 289.861 48.013C289.861 48.97 289.89 50.826 289.89 51.203H287.425C287.425 50.826 287.483 48.709 287.483 47.694C287.483 46.505 287.483 34.528 287.483 33.397C287.483 32.73 287.483 31.86 287.454 31.135ZM306.652 47.288V49.55H288.701V47.288H306.652ZM331.795 27.8C332.52 28.844 333.564 30.613 334.144 31.773L332.578 32.498C331.998 31.309 331.012 29.569 330.229 28.467L331.795 27.8ZM334.956 26.64C335.739 27.713 336.841 29.511 337.392 30.584L335.826 31.28C335.188 30.033 334.26 28.38 333.448 27.307L334.956 26.64ZM333.709 33.571C333.477 34.006 333.187 34.673 333.042 35.137C332.259 38.037 330.461 41.981 327.909 45.113C325.27 48.332 321.79 51 316.338 53.001L314.25 51.116C319.586 49.55 323.182 46.911 325.821 43.837C328.083 41.169 329.852 37.428 330.461 34.789H319.702L320.63 32.701C321.819 32.701 328.982 32.701 329.881 32.701C330.664 32.701 331.302 32.614 331.795 32.411L333.709 33.571ZM323.994 29.192C323.53 29.946 323.008 30.932 322.718 31.483C321.007 34.673 317.962 38.82 313.322 41.923L311.292 40.415C316.309 37.428 319.151 33.223 320.427 30.613C320.717 30.12 321.152 29.047 321.326 28.322L323.994 29.192ZM342.699 29.424C343.453 29.511 344.352 29.569 345.28 29.569C346.846 29.569 354.995 29.569 356.706 29.569C357.605 29.569 358.62 29.511 359.316 29.424V31.831C358.649 31.773 357.634 31.744 356.648 31.744C355.024 31.744 346.875 31.744 345.28 31.744C344.41 31.744 343.482 31.773 342.699 31.831V29.424ZM361.462 37.051C361.317 37.341 361.114 37.689 361.056 37.921C360.302 40.763 358.997 43.779 356.822 46.157C353.806 49.492 350.152 51.174 346.469 52.218L344.671 50.159C348.76 49.318 352.385 47.433 354.879 44.823C356.619 42.996 357.779 40.531 358.301 38.414C356.88 38.414 344.671 38.414 342.931 38.414C342.235 38.414 341.133 38.443 340.089 38.53V36.094C341.133 36.181 342.119 36.268 342.931 36.268C344.352 36.268 356.706 36.268 358.185 36.268C358.852 36.268 359.49 36.181 359.809 36.036L361.462 37.051ZM370.713 29.047C374.483 29.54 382.255 31.164 385.909 32.44L384.981 34.673C381.472 33.368 373.874 31.715 369.872 31.193L370.713 29.047ZM369.379 36.703C373.352 37.399 380.399 38.878 383.995 40.183L383.096 42.416C379.732 41.111 372.627 39.516 368.509 38.878L369.379 36.703ZM367.813 45.142C372.656 45.925 381.095 47.897 385.068 49.492L384.053 51.725C380.225 50.043 371.583 48.1 366.914 47.375L367.813 45.142ZM395.363 29.772C397.393 31.135 401.134 34.151 402.729 35.746L400.931 37.602C399.452 36.094 395.856 32.962 393.681 31.541L395.363 29.772ZM392.869 49.202C397.915 48.448 401.685 46.679 404.44 44.968C408.935 42.155 412.444 37.863 414.126 34.267L415.518 36.761C413.546 40.357 410.182 44.301 405.803 47.056C402.874 48.883 399.22 50.681 394.377 51.58L392.869 49.202ZM437.355 27.8C438.08 28.844 439.124 30.613 439.704 31.773L438.138 32.498C437.558 31.309 436.572 29.569 435.789 28.467L437.355 27.8ZM440.516 26.64C441.299 27.713 442.401 29.511 442.952 30.584L441.386 31.28C440.748 30.033 439.82 28.38 439.008 27.307L440.516 26.64ZM439.269 33.571C439.037 34.006 438.747 34.673 438.602 35.137C437.819 38.037 436.021 41.981 433.469 45.113C430.83 48.332 427.35 51 421.898 53.001L419.81 51.116C425.146 49.55 428.742 46.911 431.381 43.837C433.643 41.169 435.412 37.428 436.021 34.789H425.262L426.19 32.701C427.379 32.701 434.542 32.701 435.441 32.701C436.224 32.701 436.862 32.614 437.355 32.411L439.269 33.571ZM429.554 29.192C429.09 29.946 428.568 30.932 428.278 31.483C426.567 34.673 423.522 38.82 418.882 41.923L416.852 40.415C421.869 37.428 424.711 33.223 425.987 30.613C426.277 30.12 426.712 29.047 426.886 28.322L429.554 29.192ZM316.773 67.252H331.534V69.166H316.773V67.252ZM318.252 72.211H320.282V83.55H318.252V72.211ZM319.354 72.211H329.968V81.433H319.354V79.548H327.938V74.038H319.354V72.211ZM312.133 62.148H335.304V64.236H314.25V87.378H312.133V62.148ZM333.97 62.148H336.116V84.565C336.116 85.928 335.768 86.595 334.869 86.943C333.999 87.32 332.549 87.378 330.026 87.349C329.939 86.769 329.591 85.812 329.243 85.232C331.07 85.29 332.781 85.29 333.274 85.261C333.796 85.232 333.97 85.058 333.97 84.565V62.148ZM348.963 62.148H361.694V64.178H348.963V62.148ZM347.977 72.327H363.927V74.415H347.977V72.327ZM354.821 68.47H356.996V84.594C356.996 85.899 356.677 86.537 355.778 86.885C354.821 87.233 353.313 87.291 350.993 87.262C350.877 86.682 350.5 85.725 350.21 85.145C352.037 85.203 353.661 85.203 354.183 85.174C354.676 85.145 354.821 85 354.821 84.565V68.47ZM360.911 62.148H361.433L361.897 62.032L363.318 63.076C361.578 65.541 358.881 68.354 356.561 70.094C356.242 69.688 355.633 69.108 355.256 68.818C357.344 67.252 359.751 64.526 360.911 62.641V62.148ZM337.247 66.643H346.788V68.673H337.247V66.643ZM341.626 60.669L343.685 60.901C342.583 66.701 340.756 74.531 339.451 79.345L337.624 78.388C338.9 73.951 340.64 66.179 341.626 60.669ZM338.697 77.46L339.915 75.952C343.163 77.779 346.991 80.563 348.731 82.709L347.426 84.478C345.686 82.303 341.945 79.345 338.697 77.46ZM346.063 66.643H346.411L346.817 66.556L348.122 66.817C347.339 78.04 344.178 84.188 338.842 87.378C338.552 86.856 337.943 86.073 337.479 85.638C342.322 83.086 345.338 76.938 346.063 67.078V66.643ZM365.203 84.159C370.249 84.043 378.34 83.753 385.88 83.405L385.793 85.406C378.485 85.783 370.626 86.131 365.493 86.305L365.203 84.159ZM364.942 75.198H388.983V77.257H364.942V75.198ZM369.901 69.659H383.763V71.689H369.901V69.659ZM372.888 76.503L375.324 77.199C373.99 79.983 372.308 83.376 370.887 85.551L368.944 84.913C370.307 82.651 372.018 79.055 372.888 76.503ZM379.79 79.577L381.646 78.591C384.314 80.882 387.156 84.014 388.519 86.218L386.547 87.407C385.242 85.232 382.371 81.897 379.79 79.577ZM376.774 62.786C374.396 66.324 369.64 70.297 364.71 72.762C364.449 72.24 363.898 71.457 363.434 70.993C368.422 68.615 373.265 64.41 375.527 60.698H377.76C380.834 64.99 385.909 68.789 390.52 70.674C389.998 71.196 389.476 71.979 389.099 72.617C384.575 70.442 379.471 66.556 376.774 62.786Z" fill="black"/>
<path d="M520.826 66.218H533.27V68.258H520.826V66.218ZM522.628 47.45H533.882V49.422H522.628V47.45ZM519.228 59.554H534.936V69.72H532.42V61.594H521.676V69.72H519.228V59.554ZM522.39 49.388C525.824 53.128 532.59 56.596 538.676 58.092C538.132 58.602 537.418 59.588 537.044 60.2C531.06 58.466 524.192 54.692 520.316 50.476L522.39 49.388ZM533.304 47.45H533.814L534.256 47.314L535.854 48.3C532.182 54.488 524.124 58.568 516.984 60.438C516.712 59.826 516.134 58.84 515.692 58.364C522.458 56.834 530.278 52.924 533.304 47.824V47.45ZM507.634 67.646C509.504 65.606 512.258 62.138 514.434 59.078L515.964 60.914C514.026 63.736 511.612 67.068 509.504 69.618L507.634 67.646ZM509.266 47.314L510.728 45.58C512.632 46.532 515.216 47.994 516.542 49.014L514.978 50.952C513.72 49.932 511.17 48.334 509.266 47.314ZM506.954 53.944L508.416 52.176C510.422 52.992 513.006 54.386 514.298 55.474L512.768 57.446C511.51 56.358 508.96 54.862 506.954 53.944ZM523.24 44.9L525.756 45.376C523.818 48.47 521.064 51.802 517.324 54.556C516.916 54.046 516.1 53.332 515.522 53.026C519.092 50.646 521.744 47.45 523.24 44.9ZM515.318 38.474H517.834V45.988H515.318V38.474ZM527.048 38.474H529.564V45.988H527.048V38.474ZM507.634 40.82H537.52V43.098H507.634V40.82ZM552.786 57.48H567.168V69.584H564.686V59.826H555.2V69.72H552.786V57.48ZM551.868 45.444H566.25V53.774H563.768V47.688H551.868V45.444ZM556.764 40.582L559.28 40.786C558.668 44.968 557.716 50.544 557.002 53.774H554.486C555.268 50.408 556.22 44.696 556.764 40.582ZM551.324 39.732H568.154V41.942H551.324V39.732ZM550.304 52.618H569.242V54.896H550.304V52.618ZM553.874 65.844H566.046V68.156H553.874V65.844ZM539.39 48.946H548.978V50.952H539.39V48.946ZM539.594 39.664H548.944V41.704H539.594V39.664ZM539.39 53.57H548.978V55.61H539.39V53.57ZM537.792 44.22H550.168V46.328H537.792V44.22ZM540.614 58.228H549.114V68.156H540.614V66.048H546.87V60.37H540.614V58.228ZM539.356 58.228H541.566V69.72H539.356V58.228ZM570.738 66.014C576.654 65.878 586.14 65.538 594.98 65.13L594.878 67.476C586.31 67.918 577.096 68.326 571.078 68.53L570.738 66.014ZM570.432 55.508H598.618V57.922H570.432V55.508ZM576.246 49.014H592.498V51.394H576.246V49.014ZM579.748 57.038L582.604 57.854C581.04 61.118 579.068 65.096 577.402 67.646L575.124 66.898C576.722 64.246 578.728 60.03 579.748 57.038ZM587.84 60.642L590.016 59.486C593.144 62.172 596.476 65.844 598.074 68.428L595.762 69.822C594.232 67.272 590.866 63.362 587.84 60.642ZM584.304 40.956C581.516 45.104 575.94 49.762 570.16 52.652C569.854 52.04 569.208 51.122 568.664 50.578C574.512 47.79 580.19 42.86 582.842 38.508H585.46C589.064 43.54 595.014 47.994 600.42 50.204C599.808 50.816 599.196 51.734 598.754 52.482C593.45 49.932 587.466 45.376 584.304 40.956Z" fill="black"/>
</svg>
