<svg width="937" height="1078" viewBox="0 0 937 1078" fill="none" xmlns="http://www.w3.org/2000/svg">
<rect opacity="0.9" x="44" y="1036" width="12.0945" height="42" fill="#D1D1D1"/>
<rect opacity="0.9" x="87.3379" y="1036" width="12.0945" height="42" fill="#D1D1D1"/>
<rect opacity="0.9" x="130.678" y="1036" width="12.0945" height="42" fill="#D1D1D1"/>
<rect opacity="0.9" x="58.1094" y="1036" width="13.1024" height="42" fill="#D1D1D1"/>
<rect opacity="0.9" x="101.449" y="1036" width="13.1024" height="42" fill="#D1D1D1"/>
<rect opacity="0.9" x="144.787" y="1036" width="13.1024" height="42" fill="#D1D1D1"/>
<rect opacity="0.9" x="73.2285" y="1036" width="12.0945" height="42" fill="#D1D1D1"/>
<rect opacity="0.9" x="116.566" y="1036" width="12.0945" height="42" fill="#D1D1D1"/>
<rect opacity="0.9" x="159.906" y="1036" width="12.0945" height="42" fill="#D1D1D1"/>
<rect opacity="0.9" x="809" y="181" width="12.0945" height="42" fill="#D1D1D1"/>
<rect opacity="0.9" x="852.338" y="181" width="12.0945" height="42" fill="#D1D1D1"/>
<rect opacity="0.9" x="895.678" y="181" width="12.0945" height="42" fill="#D1D1D1"/>
<rect opacity="0.9" x="823.109" y="181" width="13.1024" height="42" fill="#D1D1D1"/>
<rect opacity="0.9" x="866.449" y="181" width="13.1024" height="42" fill="#D1D1D1"/>
<rect opacity="0.9" x="909.787" y="181" width="13.1024" height="42" fill="#D1D1D1"/>
<rect opacity="0.9" x="838.229" y="181" width="12.0945" height="42" fill="#D1D1D1"/>
<rect opacity="0.9" x="881.566" y="181" width="12.0945" height="42" fill="#D1D1D1"/>
<rect opacity="0.9" x="924.906" y="181" width="12.0945" height="42" fill="#D1D1D1"/>
<rect opacity="0.9" x="807" y="1036" width="12.0945" height="42" fill="#D1D1D1"/>
<rect opacity="0.9" x="850.338" y="1036" width="12.0945" height="42" fill="#D1D1D1"/>
<rect opacity="0.9" x="893.678" y="1036" width="12.0945" height="42" fill="#D1D1D1"/>
<rect opacity="0.9" x="821.109" y="1036" width="13.1024" height="42" fill="#D1D1D1"/>
<rect opacity="0.9" x="864.449" y="1036" width="13.1024" height="42" fill="#D1D1D1"/>
<rect opacity="0.9" x="907.787" y="1036" width="13.1024" height="42" fill="#D1D1D1"/>
<rect opacity="0.9" x="836.229" y="1036" width="12.0945" height="42" fill="#D1D1D1"/>
<rect opacity="0.9" x="879.566" y="1036" width="12.0945" height="42" fill="#D1D1D1"/>
<rect opacity="0.9" x="922.906" y="1036" width="12.0945" height="42" fill="#D1D1D1"/>
<rect opacity="0.9" x="43" y="183" width="12.0945" height="42" fill="#D1D1D1"/>
<rect opacity="0.9" x="86.3379" y="183" width="12.0945" height="42" fill="#D1D1D1"/>
<rect opacity="0.9" x="129.678" y="183" width="12.0945" height="42" fill="#D1D1D1"/>
<rect opacity="0.9" x="57.1094" y="183" width="13.1024" height="42" fill="#D1D1D1"/>
<rect opacity="0.9" x="100.449" y="183" width="13.1024" height="42" fill="#D1D1D1"/>
<rect opacity="0.9" x="143.787" y="183" width="13.1024" height="42" fill="#D1D1D1"/>
<rect opacity="0.9" x="72.2285" y="183" width="12.0945" height="42" fill="#D1D1D1"/>
<rect opacity="0.9" x="115.566" y="183" width="12.0945" height="42" fill="#D1D1D1"/>
<rect opacity="0.9" x="158.906" y="183" width="12.0945" height="42" fill="#D1D1D1"/>
<path d="M0 137H35V1078H0V137Z" fill="#D0D0D0" fill-opacity="0.47"/>
<path d="M764 172H799V1078H764V172Z" fill="#D0D0D0" fill-opacity="0.47"/>
<rect x="35" y="137" width="900" height="35" fill="#D0D0D0" fill-opacity="0.47"/>
<rect opacity="0.9" x="566" y="2" width="202" height="128" fill="#D1D1D1"/>
<path d="M597.644 52.776H599.724V79.432H597.644V52.776ZM592.14 59.208H604.556V61.224H592.14V59.208ZM597.74 59.976L599.116 60.552C597.836 65.032 595.212 70.632 592.78 73.544C592.556 72.968 592.012 72.104 591.628 71.624C593.964 69.064 596.588 64.008 597.74 59.976ZM602.636 50.664L603.98 52.36C601.132 53.544 596.716 54.408 593.068 54.92C592.972 54.44 592.684 53.704 592.428 53.256C596.044 52.648 600.268 51.72 602.636 50.664ZM599.596 61.704C600.428 62.568 603.532 66.6 604.268 67.56L602.892 69.256C602.124 67.72 599.532 63.816 598.572 62.6L599.596 61.704ZM615.212 50.152H617.324V79.464H615.212V50.152ZM604.204 71.048L621.196 68.36L621.516 70.312L604.524 73.064L604.204 71.048ZM606.892 53.736L608.268 52.456C610.188 53.64 612.492 55.496 613.58 56.84L612.108 58.216C611.052 56.904 608.812 55.016 606.892 53.736ZM605.58 62.056L606.924 60.776C609.068 62.024 611.596 63.944 612.78 65.32L611.372 66.728C610.188 65.352 607.724 63.336 605.58 62.056ZM628.364 60.968H644.396V62.888H628.364V60.968ZM623.052 68.264H651.276V70.28H623.052V68.264ZM636.012 65.896H638.188V76.872C638.188 78.216 637.836 78.856 636.716 79.176C635.596 79.528 633.804 79.528 630.86 79.528C630.7 78.952 630.252 78.088 629.9 77.48C632.428 77.544 634.572 77.544 635.244 77.512C635.884 77.448 636.012 77.32 636.012 76.84V65.896ZM643.756 60.968H644.3L644.748 60.84L646.156 61.896C643.98 64.072 640.588 66.248 637.548 67.528C637.292 67.144 636.716 66.568 636.332 66.28C639.084 65.128 642.188 63.048 643.756 61.384V60.968ZM623.724 55.56H650.7V62.568H648.588V57.512H625.772V62.568H623.724V55.56ZM646.732 50.376L648.94 51.176C647.596 53.128 645.9 55.272 644.556 56.68L642.86 55.912C644.14 54.44 645.836 52.072 646.732 50.376ZM625.932 51.432L627.724 50.568C628.972 51.944 630.316 53.768 630.828 55.048L628.972 55.976C628.428 54.728 627.116 52.808 625.932 51.432ZM634.188 50.728L636.012 50.056C637.132 51.592 638.284 53.672 638.668 55.016L636.716 55.816C636.332 54.44 635.244 52.296 634.188 50.728ZM664.972 68.488H677.996V70.184H664.972V68.488ZM662.156 52.744H681.132V54.44H662.156V52.744ZM662.892 56.616H680.364V58.216H662.892V56.616ZM661.164 60.616H682.092V62.28H661.164V60.616ZM664.972 72.776H678.092V74.44H664.972V72.776ZM663.532 64.264H678.028V65.96H665.516V79.464H663.532V64.264ZM677.452 64.264H679.5V77C679.5 78.12 679.276 78.696 678.412 79.048C677.548 79.368 676.14 79.368 673.868 79.368C673.772 78.824 673.484 78.024 673.228 77.48C674.892 77.576 676.428 77.544 676.876 77.544C677.324 77.512 677.452 77.384 677.452 76.968V64.264ZM670.476 50.184H672.588V61.128H670.476V50.184ZM656.364 50.184H658.348V79.464H656.364V50.184ZM653.9 56.328L655.532 56.552C655.404 59.048 654.892 62.728 654.124 65.096L652.428 64.552C653.164 62.344 653.708 58.824 653.9 56.328ZM658.764 55.496L660.236 54.92C660.94 56.392 661.708 58.28 661.996 59.464L660.46 60.2C660.172 59.016 659.436 57 658.764 55.496ZM699.628 62.536H710.22V64.328H699.628V62.536ZM698.54 51.688H709.932V53.64H700.556V79.56H698.54V51.688ZM708.94 51.688H710.924V57.896C710.924 59.016 710.7 59.592 709.74 59.912C708.812 60.264 707.244 60.264 704.748 60.264C704.652 59.688 704.364 58.92 704.044 58.376C706.124 58.44 707.788 58.44 708.3 58.376C708.812 58.344 708.94 58.248 708.94 57.896V51.688ZM702.604 63.688C704.364 69.8 708.044 75.4 712.908 77.768C712.428 78.184 711.756 78.952 711.404 79.496C706.412 76.744 702.796 70.824 700.908 64.136L702.604 63.688ZM709.58 62.536H709.964L710.348 62.44L711.692 62.952C710.412 69.8 707.18 76.104 702.028 79.56C701.708 79.08 701.068 78.472 700.588 78.12C705.452 74.952 708.524 68.904 709.58 63.048V62.536ZM684.428 53.544H696.204V55.432H684.428V53.544ZM684.012 70.952H696.652V72.808H684.012V70.952ZM683.276 58.824H697.452V60.68H683.276V58.824ZM683.692 65.416H697.068V67.272H683.692V65.416ZM689.42 50.216H691.436V59.464H689.42V50.216ZM689.42 66.216H691.436V79.464H689.42V66.216ZM693.74 60.616L695.596 61.128C694.956 62.664 694.316 64.36 693.708 65.512L692.076 65.032C692.652 63.816 693.388 61.896 693.74 60.616ZM685.548 61.096L687.18 60.68C687.916 62.056 688.588 63.912 688.716 65.032L686.988 65.544C686.828 64.36 686.22 62.536 685.548 61.096ZM731.596 52.104H741.26V54.12H733.676V79.528H731.596V52.104ZM714.508 53.832H729.772V55.752H714.508V53.832ZM713.644 62.664H730.22V64.648H713.644V62.664ZM721.036 50.28H723.116V54.984H721.036V50.28ZM716.524 56.904L718.348 56.52C719.052 58.12 719.66 60.328 719.852 61.736L717.932 62.184C717.772 60.776 717.228 58.568 716.524 56.904ZM725.804 56.264L727.884 56.776C727.18 58.664 726.38 60.872 725.676 62.312L723.948 61.832C724.588 60.328 725.388 57.896 725.804 56.264ZM716.62 75.688H727.276V77.64H716.62V75.688ZM715.852 67.56H728.364V79.368H726.284V69.48H717.868V79.528H715.852V67.56ZM740.684 52.104H741.1L741.452 52.008L743.02 53C741.708 56.008 739.98 59.752 738.444 62.696C741.804 65.736 742.636 68.264 742.636 70.568C742.636 72.456 742.188 73.96 741.1 74.696C740.556 75.048 739.852 75.272 739.02 75.368C738.188 75.464 737.132 75.432 736.172 75.4C736.14 74.792 735.948 73.896 735.564 73.256C736.556 73.352 737.516 73.384 738.188 73.352C738.732 73.288 739.212 73.192 739.596 72.968C740.332 72.52 740.556 71.528 740.556 70.344C740.524 68.296 739.564 65.864 736.204 63.016C737.9 59.688 739.66 55.336 740.684 52.776V52.104Z" fill="black"/>
<rect opacity="0.9" x="239" y="181" width="420.324" height="486" fill="#D1D1D1"/>
<path d="M343.1 422.496H369.548V427.36H343.1V422.496ZM340.82 422.496H345.836V453.656C345.836 456.62 346.748 457.304 351.004 457.304C353.056 457.304 363.468 457.304 366.128 457.304C370.384 457.304 370.992 455.252 371.448 444.46C372.664 445.372 374.792 446.284 376.236 446.588C375.476 458.748 373.88 462.168 366.432 462.168C364.608 462.168 352.372 462.168 350.7 462.168C343.1 462.168 340.82 460.496 340.82 453.656V422.496ZM339.832 397.72H372.208V431.616H367.116V402.584H339.832V397.72ZM309.812 416.264H333.372V420.368H309.812V416.264ZM310.192 396.048H333.676V400.228H310.192V396.048ZM309.812 426.372H333.372V430.552H309.812V426.372ZM306.164 405.928H336.26V410.26H306.164V405.928ZM312.168 436.556H333.144V458.596H312.168V454.34H328.508V440.888H312.168V436.556ZM309.66 436.556H314.296V462.168H309.66V436.556ZM398.808 439.824H403.824V454.948C403.824 456.924 404.508 457.38 408.232 457.38C409.98 457.38 418.948 457.38 421.304 457.38C424.648 457.38 425.104 456.24 425.408 447.88C426.548 448.716 428.676 449.552 430.12 449.856C429.436 459.66 427.916 462.016 421.684 462.016C420.164 462.016 409.372 462.016 407.928 462.016C400.632 462.016 398.808 460.572 398.808 454.948V439.824ZM402.532 434.884L405.648 431.54C411.272 434.048 417.732 438.228 420.772 441.724L417.428 445.372C414.464 441.876 408.08 437.544 402.532 434.884ZM429.056 441.572L433.312 438.988C439.164 444.156 445.472 451.376 447.904 456.772L443.344 459.508C440.912 454.34 434.984 446.816 429.056 441.572ZM389.46 439.596L393.944 441.116C392.196 448.184 389.004 455.86 382.848 460.192L378.668 457.304C384.368 453.352 387.712 446.36 389.46 439.596ZM388.7 420.064H432.096V424.472H388.7V420.064ZM399.34 409.956H427.156V414.212H399.34V409.956ZM412.944 397.948C406.408 405.548 393.944 414.136 381.328 419.304C380.72 418.088 379.428 416.188 378.44 415.048C391.284 410.108 403.824 401.368 410.056 393.388H415.148C423.432 402.432 436.58 410.26 448.284 414.212C447.144 415.428 445.928 417.328 445.168 418.772C433.844 414.364 420.316 406.08 412.944 397.948ZM430.576 420.064H431.64L432.476 419.836L435.82 421.888C432.932 427.816 427.84 434.808 423.736 439.292C422.748 438.532 421.076 437.468 419.86 436.936C423.812 432.68 428.372 425.84 430.576 421.052V420.064ZM478.684 400.076H519.496V404.028H478.684V400.076ZM476.556 418.468H520.56V422.572H476.556V418.468ZM476.48 446.588H520.636V450.844H476.48V446.588ZM483.624 437.164H514.48V440.736H483.624V437.164ZM480.204 409.044H517.976V412.996H480.204V409.044ZM487.88 393.388H492.516V420.292H487.88V393.388ZM505.208 393.388H509.92V420.292H505.208V393.388ZM496.24 420.292H500.648V449.02H496.24V420.292ZM511.668 427.208H516.38V457.608C516.38 460.268 515.772 461.484 513.872 462.244C511.972 462.928 508.552 462.928 503.536 462.928C503.308 461.712 502.7 460.04 502.092 458.748C505.892 458.9 509.312 458.9 510.376 458.824C511.364 458.748 511.668 458.52 511.668 457.608V427.208ZM481.268 427.208H513.492V431.084H485.676V463.004H481.268V427.208ZM453.832 416.644H473.972V420.824H453.832V416.644ZM454.288 396.048H473.668V400.228H454.288V396.048ZM453.832 426.98H473.972V431.084H453.832V426.98ZM450.564 406.156H475.948V410.488H450.564V406.156ZM456.34 437.392H474.276V459.356H456.34V455.1H469.868V441.648H456.34V437.392ZM453.756 437.392H458.164V462.928H453.756V437.392ZM524.816 456.316H590.86V460.876H524.816V456.316ZM531.352 442.104H585.16V446.588H531.352V442.104ZM555.064 432.984H560.232V458.824H555.064V432.984ZM555.064 393.236H560.232V407.6H555.064V393.236ZM525.5 405.7H590.328V422.04H585.388V410.26H530.212V422.04H525.5V405.7ZM541.688 420.824V429.868H573.988V420.824H541.688ZM536.9 416.72H579.004V433.972H536.9V416.72ZM532.568 396.048L537.052 394.224C539.864 397.416 542.752 401.52 544.196 404.408L539.408 406.612C538.116 403.724 535.228 399.24 532.568 396.048ZM578.472 393.92L583.64 395.82C581.056 399.468 577.94 403.42 575.508 406.004L571.328 404.408C573.684 401.52 576.8 397.036 578.472 393.92Z" fill="black"/>
<rect opacity="0.9" x="64" width="202" height="128" fill="#D1D1D1"/>
<path d="M89.452 61.704H108.268V63.72H89.452V61.704ZM89.452 68.68H108.268V70.696H89.452V68.68ZM89.452 75.688H108.268V77.736H89.452V75.688ZM88.012 54.6H109.868V79.368H107.66V56.648H90.156V79.56H88.012V54.6ZM97.42 50.12L99.852 50.472C99.18 52.36 98.38 54.44 97.644 55.816L95.756 55.432C96.364 53.928 97.068 51.688 97.42 50.12ZM129.036 57.064H143.244V59.144H129.036V57.064ZM136.556 57.832C137.612 63.464 139.948 67.912 144.14 69.96C143.628 70.376 142.988 71.176 142.668 71.752C138.316 69.256 135.884 64.488 134.732 58.184L136.556 57.832ZM118.86 57.384L119.852 56.104C122.092 57.096 124.78 58.664 126.188 59.784L125.164 61.224C123.788 60.072 121.068 58.44 118.86 57.384ZM137.74 51.624L139.276 50.728C140.684 52.04 142.316 53.928 143.02 55.176L141.388 56.232C140.684 54.984 139.116 53.032 137.74 51.624ZM116.076 61L117.292 59.816C119.468 61.032 122.156 62.824 123.5 64.136L122.22 65.448C120.908 64.168 118.284 62.248 116.076 61ZM121.292 49.96L123.372 50.504C121.708 54.856 118.86 59.688 115.244 62.76C114.892 62.344 114.22 61.704 113.772 61.384C117.228 58.536 119.98 53.896 121.292 49.96ZM127.34 53.096H127.756L128.172 53L129.516 53.576C127.5 63.176 122.54 69.064 116.428 72.104C116.172 71.592 115.404 70.76 114.924 70.44C120.908 67.688 125.644 62.216 127.34 53.544V53.096ZM124.204 73.384L126.188 73.192C126.604 75.08 126.956 77.512 126.988 78.952L124.876 79.24C124.844 77.768 124.62 75.272 124.204 73.384ZM130.764 73.384L132.748 73.032C133.644 74.856 134.54 77.32 134.86 78.824L132.748 79.272C132.428 77.736 131.628 75.272 130.764 73.384ZM137.356 73.16L139.34 72.488C141.004 74.408 142.892 77.064 143.756 78.792L141.612 79.592C140.844 77.896 138.988 75.144 137.356 73.16ZM118.604 72.616L120.62 73.096C119.82 75.464 118.444 78.024 116.716 79.528L114.796 78.696C116.396 77.352 117.868 74.92 118.604 72.616ZM121.1 53.096H128.108V54.888H120.044L121.1 53.096ZM134.412 50.568H136.46V56.712C136.46 61.832 135.404 67.496 127.948 71.528C127.628 71.048 126.956 70.408 126.412 70.024C133.548 66.248 134.412 61.064 134.412 56.712V50.568ZM154.956 66.664H173.836V68.648H154.956V66.664ZM165.772 54.92H167.724V60.776C167.724 61.448 167.852 61.544 168.716 61.544C169.068 61.544 170.988 61.544 171.5 61.544C172.236 61.544 172.364 61.224 172.428 58.664C172.844 58.984 173.644 59.272 174.22 59.432C173.996 62.536 173.452 63.336 171.756 63.336C171.276 63.336 168.908 63.336 168.46 63.336C166.252 63.336 165.772 62.792 165.772 60.808V54.92ZM155.5 51.976H173.548V57.512H171.596V53.896H157.42V57.64H155.5V51.976ZM163.212 63.144H165.324V79.528H163.212V63.144ZM160.652 54.984H162.668C162.348 59.976 161.068 62.632 155.884 64.072C155.692 63.592 155.18 62.888 154.764 62.536C159.404 61.352 160.396 59.208 160.652 54.984ZM166.188 67.56C167.948 71.112 171.372 74.6 174.732 76.264C174.252 76.648 173.58 77.384 173.228 77.96C169.836 75.976 166.38 72.136 164.492 68.2L166.188 67.56ZM162.444 67.368L164.14 67.976C162.188 72.328 158.604 76.136 154.668 78.088C154.316 77.576 153.74 76.808 153.26 76.424C157.068 74.76 160.652 71.24 162.444 67.368ZM144.428 66.888C146.892 66.152 150.636 64.968 154.284 63.784L154.572 65.768C151.212 66.92 147.692 68.072 145.004 68.968L144.428 66.888ZM144.844 56.712H154.54V58.728H144.844V56.712ZM148.972 50.216H150.988V76.968C150.988 78.184 150.7 78.792 149.932 79.112C149.196 79.464 148.012 79.528 145.964 79.528C145.9 79.016 145.612 78.12 145.356 77.544C146.796 77.576 148.044 77.576 148.428 77.544C148.812 77.544 148.972 77.416 148.972 76.968V50.216ZM177.484 67.016H196.396V69.032H177.484V67.016ZM195.212 67.016H197.42V76.264C197.42 77.096 197.58 77.224 198.508 77.224C198.892 77.224 200.876 77.224 201.388 77.224C202.316 77.224 202.476 76.648 202.572 72.392C203.02 72.808 203.98 73.16 204.588 73.352C204.396 78.152 203.82 79.336 201.612 79.336C201.132 79.336 198.668 79.336 198.22 79.336C195.884 79.336 195.212 78.728 195.212 76.264V67.016ZM188.812 50.152H190.988V54.408H188.812V50.152ZM184.972 54.568H187.212C186.572 60.296 184.62 63.464 177.068 65.064C176.876 64.552 176.364 63.72 175.948 63.304C182.86 61.992 184.428 59.368 184.972 54.568ZM192.332 54.568H194.476V61.032C194.476 61.768 194.636 61.896 195.852 61.896C196.396 61.896 199.372 61.896 200.108 61.896C201.004 61.896 201.196 61.576 201.292 59.432C201.74 59.784 202.604 60.104 203.212 60.232C202.956 63.112 202.348 63.848 200.332 63.848C199.756 63.848 196.204 63.848 195.66 63.848C193.004 63.848 192.332 63.272 192.332 61.064V54.568ZM176.396 53.192H203.628V58.568H201.42V55.144H178.508V58.824H176.396V53.192ZM186.828 63.048H188.972V66.856C188.972 71.176 187.564 76.52 176.78 79.592C176.492 79.08 175.82 78.344 175.34 77.864C185.58 74.984 186.828 70.312 186.828 66.824V63.048ZM223.596 52.104H233.26V54.12H225.676V79.528H223.596V52.104ZM206.508 53.832H221.772V55.752H206.508V53.832ZM205.644 62.664H222.22V64.648H205.644V62.664ZM213.036 50.28H215.116V54.984H213.036V50.28ZM208.524 56.904L210.348 56.52C211.052 58.12 211.66 60.328 211.852 61.736L209.932 62.184C209.772 60.776 209.228 58.568 208.524 56.904ZM217.804 56.264L219.884 56.776C219.18 58.664 218.38 60.872 217.676 62.312L215.948 61.832C216.588 60.328 217.388 57.896 217.804 56.264ZM208.62 75.688H219.276V77.64H208.62V75.688ZM207.852 67.56H220.364V79.368H218.284V69.48H209.868V79.528H207.852V67.56ZM232.684 52.104H233.1L233.452 52.008L235.02 53C233.708 56.008 231.98 59.752 230.444 62.696C233.804 65.736 234.636 68.264 234.636 70.568C234.636 72.456 234.188 73.96 233.1 74.696C232.556 75.048 231.852 75.272 231.02 75.368C230.188 75.464 229.132 75.432 228.172 75.4C228.14 74.792 227.948 73.896 227.564 73.256C228.556 73.352 229.516 73.384 230.188 73.352C230.732 73.288 231.212 73.192 231.596 72.968C232.332 72.52 232.556 71.528 232.556 70.344C232.524 68.296 231.564 65.864 228.204 63.016C229.9 59.688 231.66 55.336 232.684 52.776V52.104Z" fill="black"/>
</svg>
