<svg width="937" height="1078" viewBox="0 0 937 1078" fill="none" xmlns="http://www.w3.org/2000/svg">
<rect opacity="0.9" x="44" y="1036" width="12.0945" height="42" fill="#D1D1D1"/>
<rect opacity="0.9" x="87.3379" y="1036" width="12.0945" height="42" fill="#D1D1D1"/>
<rect opacity="0.9" x="130.678" y="1036" width="12.0945" height="42" fill="#D1D1D1"/>
<rect opacity="0.9" x="58.1094" y="1036" width="13.1024" height="42" fill="#D1D1D1"/>
<rect opacity="0.9" x="101.449" y="1036" width="13.1024" height="42" fill="#D1D1D1"/>
<rect opacity="0.9" x="144.787" y="1036" width="13.1024" height="42" fill="#D1D1D1"/>
<rect opacity="0.9" x="73.2285" y="1036" width="12.0945" height="42" fill="#D1D1D1"/>
<rect opacity="0.9" x="116.566" y="1036" width="12.0945" height="42" fill="#D1D1D1"/>
<rect opacity="0.9" x="159.906" y="1036" width="12.0945" height="42" fill="#D1D1D1"/>
<rect opacity="0.9" x="809" y="181" width="12.0945" height="42" fill="#D1D1D1"/>
<rect opacity="0.9" x="852.338" y="181" width="12.0945" height="42" fill="#D1D1D1"/>
<rect opacity="0.9" x="895.678" y="181" width="12.0945" height="42" fill="#D1D1D1"/>
<rect opacity="0.9" x="823.109" y="181" width="13.1024" height="42" fill="#D1D1D1"/>
<rect opacity="0.9" x="866.449" y="181" width="13.1024" height="42" fill="#D1D1D1"/>
<rect opacity="0.9" x="909.787" y="181" width="13.1024" height="42" fill="#D1D1D1"/>
<rect opacity="0.9" x="838.229" y="181" width="12.0945" height="42" fill="#D1D1D1"/>
<rect opacity="0.9" x="881.566" y="181" width="12.0945" height="42" fill="#D1D1D1"/>
<rect opacity="0.9" x="924.906" y="181" width="12.0945" height="42" fill="#D1D1D1"/>
<rect opacity="0.9" x="807" y="1036" width="12.0945" height="42" fill="#D1D1D1"/>
<rect opacity="0.9" x="850.338" y="1036" width="12.0945" height="42" fill="#D1D1D1"/>
<rect opacity="0.9" x="893.678" y="1036" width="12.0945" height="42" fill="#D1D1D1"/>
<rect opacity="0.9" x="821.109" y="1036" width="13.1024" height="42" fill="#D1D1D1"/>
<rect opacity="0.9" x="864.449" y="1036" width="13.1024" height="42" fill="#D1D1D1"/>
<rect opacity="0.9" x="907.787" y="1036" width="13.1024" height="42" fill="#D1D1D1"/>
<rect opacity="0.9" x="836.229" y="1036" width="12.0945" height="42" fill="#D1D1D1"/>
<rect opacity="0.9" x="879.566" y="1036" width="12.0945" height="42" fill="#D1D1D1"/>
<rect opacity="0.9" x="922.906" y="1036" width="12.0945" height="42" fill="#D1D1D1"/>
<rect opacity="0.9" x="43" y="183" width="12.0945" height="42" fill="#D1D1D1"/>
<rect opacity="0.9" x="86.3379" y="183" width="12.0945" height="42" fill="#D1D1D1"/>
<rect opacity="0.9" x="129.678" y="183" width="12.0945" height="42" fill="#D1D1D1"/>
<rect opacity="0.9" x="57.1094" y="183" width="13.1024" height="42" fill="#D1D1D1"/>
<rect opacity="0.9" x="100.449" y="183" width="13.1024" height="42" fill="#D1D1D1"/>
<rect opacity="0.9" x="143.787" y="183" width="13.1024" height="42" fill="#D1D1D1"/>
<rect opacity="0.9" x="72.2285" y="183" width="12.0945" height="42" fill="#D1D1D1"/>
<rect opacity="0.9" x="115.566" y="183" width="12.0945" height="42" fill="#D1D1D1"/>
<rect opacity="0.9" x="158.906" y="183" width="12.0945" height="42" fill="#D1D1D1"/>
<path d="M0 137H35V1078H0V137Z" fill="#D0D0D0" fill-opacity="0.47"/>
<path d="M764 172H799V1078H764V172Z" fill="#D0D0D0" fill-opacity="0.47"/>
<rect x="35" y="137" width="900" height="35" fill="#D0D0D0" fill-opacity="0.47"/>
<rect opacity="0.9" x="566" y="2" width="202" height="128" fill="#D1D1D1"/>
<path d="M597.644 52.776H599.724V79.432H597.644V52.776ZM592.14 59.208H604.556V61.224H592.14V59.208ZM597.74 59.976L599.116 60.552C597.836 65.032 595.212 70.632 592.78 73.544C592.556 72.968 592.012 72.104 591.628 71.624C593.964 69.064 596.588 64.008 597.74 59.976ZM602.636 50.664L603.98 52.36C601.132 53.544 596.716 54.408 593.068 54.92C592.972 54.44 592.684 53.704 592.428 53.256C596.044 52.648 600.268 51.72 602.636 50.664ZM599.596 61.704C600.428 62.568 603.532 66.6 604.268 67.56L602.892 69.256C602.124 67.72 599.532 63.816 598.572 62.6L599.596 61.704ZM615.212 50.152H617.324V79.464H615.212V50.152ZM604.204 71.048L621.196 68.36L621.516 70.312L604.524 73.064L604.204 71.048ZM606.892 53.736L608.268 52.456C610.188 53.64 612.492 55.496 613.58 56.84L612.108 58.216C611.052 56.904 608.812 55.016 606.892 53.736ZM605.58 62.056L606.924 60.776C609.068 62.024 611.596 63.944 612.78 65.32L611.372 66.728C610.188 65.352 607.724 63.336 605.58 62.056ZM628.364 60.968H644.396V62.888H628.364V60.968ZM623.052 68.264H651.276V70.28H623.052V68.264ZM636.012 65.896H638.188V76.872C638.188 78.216 637.836 78.856 636.716 79.176C635.596 79.528 633.804 79.528 630.86 79.528C630.7 78.952 630.252 78.088 629.9 77.48C632.428 77.544 634.572 77.544 635.244 77.512C635.884 77.448 636.012 77.32 636.012 76.84V65.896ZM643.756 60.968H644.3L644.748 60.84L646.156 61.896C643.98 64.072 640.588 66.248 637.548 67.528C637.292 67.144 636.716 66.568 636.332 66.28C639.084 65.128 642.188 63.048 643.756 61.384V60.968ZM623.724 55.56H650.7V62.568H648.588V57.512H625.772V62.568H623.724V55.56ZM646.732 50.376L648.94 51.176C647.596 53.128 645.9 55.272 644.556 56.68L642.86 55.912C644.14 54.44 645.836 52.072 646.732 50.376ZM625.932 51.432L627.724 50.568C628.972 51.944 630.316 53.768 630.828 55.048L628.972 55.976C628.428 54.728 627.116 52.808 625.932 51.432ZM634.188 50.728L636.012 50.056C637.132 51.592 638.284 53.672 638.668 55.016L636.716 55.816C636.332 54.44 635.244 52.296 634.188 50.728ZM664.972 68.488H677.996V70.184H664.972V68.488ZM662.156 52.744H681.132V54.44H662.156V52.744ZM662.892 56.616H680.364V58.216H662.892V56.616ZM661.164 60.616H682.092V62.28H661.164V60.616ZM664.972 72.776H678.092V74.44H664.972V72.776ZM663.532 64.264H678.028V65.96H665.516V79.464H663.532V64.264ZM677.452 64.264H679.5V77C679.5 78.12 679.276 78.696 678.412 79.048C677.548 79.368 676.14 79.368 673.868 79.368C673.772 78.824 673.484 78.024 673.228 77.48C674.892 77.576 676.428 77.544 676.876 77.544C677.324 77.512 677.452 77.384 677.452 76.968V64.264ZM670.476 50.184H672.588V61.128H670.476V50.184ZM656.364 50.184H658.348V79.464H656.364V50.184ZM653.9 56.328L655.532 56.552C655.404 59.048 654.892 62.728 654.124 65.096L652.428 64.552C653.164 62.344 653.708 58.824 653.9 56.328ZM658.764 55.496L660.236 54.92C660.94 56.392 661.708 58.28 661.996 59.464L660.46 60.2C660.172 59.016 659.436 57 658.764 55.496ZM699.628 62.536H710.22V64.328H699.628V62.536ZM698.54 51.688H709.932V53.64H700.556V79.56H698.54V51.688ZM708.94 51.688H710.924V57.896C710.924 59.016 710.7 59.592 709.74 59.912C708.812 60.264 707.244 60.264 704.748 60.264C704.652 59.688 704.364 58.92 704.044 58.376C706.124 58.44 707.788 58.44 708.3 58.376C708.812 58.344 708.94 58.248 708.94 57.896V51.688ZM702.604 63.688C704.364 69.8 708.044 75.4 712.908 77.768C712.428 78.184 711.756 78.952 711.404 79.496C706.412 76.744 702.796 70.824 700.908 64.136L702.604 63.688ZM709.58 62.536H709.964L710.348 62.44L711.692 62.952C710.412 69.8 707.18 76.104 702.028 79.56C701.708 79.08 701.068 78.472 700.588 78.12C705.452 74.952 708.524 68.904 709.58 63.048V62.536ZM684.428 53.544H696.204V55.432H684.428V53.544ZM684.012 70.952H696.652V72.808H684.012V70.952ZM683.276 58.824H697.452V60.68H683.276V58.824ZM683.692 65.416H697.068V67.272H683.692V65.416ZM689.42 50.216H691.436V59.464H689.42V50.216ZM689.42 66.216H691.436V79.464H689.42V66.216ZM693.74 60.616L695.596 61.128C694.956 62.664 694.316 64.36 693.708 65.512L692.076 65.032C692.652 63.816 693.388 61.896 693.74 60.616ZM685.548 61.096L687.18 60.68C687.916 62.056 688.588 63.912 688.716 65.032L686.988 65.544C686.828 64.36 686.22 62.536 685.548 61.096ZM731.596 52.104H741.26V54.12H733.676V79.528H731.596V52.104ZM714.508 53.832H729.772V55.752H714.508V53.832ZM713.644 62.664H730.22V64.648H713.644V62.664ZM721.036 50.28H723.116V54.984H721.036V50.28ZM716.524 56.904L718.348 56.52C719.052 58.12 719.66 60.328 719.852 61.736L717.932 62.184C717.772 60.776 717.228 58.568 716.524 56.904ZM725.804 56.264L727.884 56.776C727.18 58.664 726.38 60.872 725.676 62.312L723.948 61.832C724.588 60.328 725.388 57.896 725.804 56.264ZM716.62 75.688H727.276V77.64H716.62V75.688ZM715.852 67.56H728.364V79.368H726.284V69.48H717.868V79.528H715.852V67.56ZM740.684 52.104H741.1L741.452 52.008L743.02 53C741.708 56.008 739.98 59.752 738.444 62.696C741.804 65.736 742.636 68.264 742.636 70.568C742.636 72.456 742.188 73.96 741.1 74.696C740.556 75.048 739.852 75.272 739.02 75.368C738.188 75.464 737.132 75.432 736.172 75.4C736.14 74.792 735.948 73.896 735.564 73.256C736.556 73.352 737.516 73.384 738.188 73.352C738.732 73.288 739.212 73.192 739.596 72.968C740.332 72.52 740.556 71.528 740.556 70.344C740.524 68.296 739.564 65.864 736.204 63.016C737.9 59.688 739.66 55.336 740.684 52.776V52.104Z" fill="black"/>
<rect opacity="0.9" x="239" y="181" width="420.324" height="486" fill="#D1D1D1"/>
<path d="M343.1 422.496H369.548V427.36H343.1V422.496ZM340.82 422.496H345.836V453.656C345.836 456.62 346.748 457.304 351.004 457.304C353.056 457.304 363.468 457.304 366.128 457.304C370.384 457.304 370.992 455.252 371.448 444.46C372.664 445.372 374.792 446.284 376.236 446.588C375.476 458.748 373.88 462.168 366.432 462.168C364.608 462.168 352.372 462.168 350.7 462.168C343.1 462.168 340.82 460.496 340.82 453.656V422.496ZM339.832 397.72H372.208V431.616H367.116V402.584H339.832V397.72ZM309.812 416.264H333.372V420.368H309.812V416.264ZM310.192 396.048H333.676V400.228H310.192V396.048ZM309.812 426.372H333.372V430.552H309.812V426.372ZM306.164 405.928H336.26V410.26H306.164V405.928ZM312.168 436.556H333.144V458.596H312.168V454.34H328.508V440.888H312.168V436.556ZM309.66 436.556H314.296V462.168H309.66V436.556ZM398.808 439.824H403.824V454.948C403.824 456.924 404.508 457.38 408.232 457.38C409.98 457.38 418.948 457.38 421.304 457.38C424.648 457.38 425.104 456.24 425.408 447.88C426.548 448.716 428.676 449.552 430.12 449.856C429.436 459.66 427.916 462.016 421.684 462.016C420.164 462.016 409.372 462.016 407.928 462.016C400.632 462.016 398.808 460.572 398.808 454.948V439.824ZM402.532 434.884L405.648 431.54C411.272 434.048 417.732 438.228 420.772 441.724L417.428 445.372C414.464 441.876 408.08 437.544 402.532 434.884ZM429.056 441.572L433.312 438.988C439.164 444.156 445.472 451.376 447.904 456.772L443.344 459.508C440.912 454.34 434.984 446.816 429.056 441.572ZM389.46 439.596L393.944 441.116C392.196 448.184 389.004 455.86 382.848 460.192L378.668 457.304C384.368 453.352 387.712 446.36 389.46 439.596ZM388.7 420.064H432.096V424.472H388.7V420.064ZM399.34 409.956H427.156V414.212H399.34V409.956ZM412.944 397.948C406.408 405.548 393.944 414.136 381.328 419.304C380.72 418.088 379.428 416.188 378.44 415.048C391.284 410.108 403.824 401.368 410.056 393.388H415.148C423.432 402.432 436.58 410.26 448.284 414.212C447.144 415.428 445.928 417.328 445.168 418.772C433.844 414.364 420.316 406.08 412.944 397.948ZM430.576 420.064H431.64L432.476 419.836L435.82 421.888C432.932 427.816 427.84 434.808 423.736 439.292C422.748 438.532 421.076 437.468 419.86 436.936C423.812 432.68 428.372 425.84 430.576 421.052V420.064ZM478.684 400.076H519.496V404.028H478.684V400.076ZM476.556 418.468H520.56V422.572H476.556V418.468ZM476.48 446.588H520.636V450.844H476.48V446.588ZM483.624 437.164H514.48V440.736H483.624V437.164ZM480.204 409.044H517.976V412.996H480.204V409.044ZM487.88 393.388H492.516V420.292H487.88V393.388ZM505.208 393.388H509.92V420.292H505.208V393.388ZM496.24 420.292H500.648V449.02H496.24V420.292ZM511.668 427.208H516.38V457.608C516.38 460.268 515.772 461.484 513.872 462.244C511.972 462.928 508.552 462.928 503.536 462.928C503.308 461.712 502.7 460.04 502.092 458.748C505.892 458.9 509.312 458.9 510.376 458.824C511.364 458.748 511.668 458.52 511.668 457.608V427.208ZM481.268 427.208H513.492V431.084H485.676V463.004H481.268V427.208ZM453.832 416.644H473.972V420.824H453.832V416.644ZM454.288 396.048H473.668V400.228H454.288V396.048ZM453.832 426.98H473.972V431.084H453.832V426.98ZM450.564 406.156H475.948V410.488H450.564V406.156ZM456.34 437.392H474.276V459.356H456.34V455.1H469.868V441.648H456.34V437.392ZM453.756 437.392H458.164V462.928H453.756V437.392ZM524.816 456.316H590.86V460.876H524.816V456.316ZM531.352 442.104H585.16V446.588H531.352V442.104ZM555.064 432.984H560.232V458.824H555.064V432.984ZM555.064 393.236H560.232V407.6H555.064V393.236ZM525.5 405.7H590.328V422.04H585.388V410.26H530.212V422.04H525.5V405.7ZM541.688 420.824V429.868H573.988V420.824H541.688ZM536.9 416.72H579.004V433.972H536.9V416.72ZM532.568 396.048L537.052 394.224C539.864 397.416 542.752 401.52 544.196 404.408L539.408 406.612C538.116 403.724 535.228 399.24 532.568 396.048ZM578.472 393.92L583.64 395.82C581.056 399.468 577.94 403.42 575.508 406.004L571.328 404.408C573.684 401.52 576.8 397.036 578.472 393.92Z" fill="black"/>
<rect opacity="0.9" x="64" width="202" height="128" fill="#D1D1D1"/>
<path d="M94.452 62.704H113.268V64.72H94.452V62.704ZM94.452 69.68H113.268V71.696H94.452V69.68ZM94.452 76.688H113.268V78.736H94.452V76.688ZM93.012 55.6H114.868V80.368H112.66V57.648H95.156V80.56H93.012V55.6ZM102.42 51.12L104.852 51.472C104.18 53.36 103.38 55.44 102.644 56.816L100.756 56.432C101.364 54.928 102.068 52.688 102.42 51.12ZM134.036 58.064H148.244V60.144H134.036V58.064ZM141.556 58.832C142.612 64.464 144.948 68.912 149.14 70.96C148.628 71.376 147.988 72.176 147.668 72.752C143.316 70.256 140.884 65.488 139.732 59.184L141.556 58.832ZM123.86 58.384L124.852 57.104C127.092 58.096 129.78 59.664 131.188 60.784L130.164 62.224C128.788 61.072 126.068 59.44 123.86 58.384ZM142.74 52.624L144.276 51.728C145.684 53.04 147.316 54.928 148.02 56.176L146.388 57.232C145.684 55.984 144.116 54.032 142.74 52.624ZM121.076 62L122.292 60.816C124.468 62.032 127.156 63.824 128.5 65.136L127.22 66.448C125.908 65.168 123.284 63.248 121.076 62ZM126.292 50.96L128.372 51.504C126.708 55.856 123.86 60.688 120.244 63.76C119.892 63.344 119.22 62.704 118.772 62.384C122.228 59.536 124.98 54.896 126.292 50.96ZM132.34 54.096H132.756L133.172 54L134.516 54.576C132.5 64.176 127.54 70.064 121.428 73.104C121.172 72.592 120.404 71.76 119.924 71.44C125.908 68.688 130.644 63.216 132.34 54.544V54.096ZM129.204 74.384L131.188 74.192C131.604 76.08 131.956 78.512 131.988 79.952L129.876 80.24C129.844 78.768 129.62 76.272 129.204 74.384ZM135.764 74.384L137.748 74.032C138.644 75.856 139.54 78.32 139.86 79.824L137.748 80.272C137.428 78.736 136.628 76.272 135.764 74.384ZM142.356 74.16L144.34 73.488C146.004 75.408 147.892 78.064 148.756 79.792L146.612 80.592C145.844 78.896 143.988 76.144 142.356 74.16ZM123.604 73.616L125.62 74.096C124.82 76.464 123.444 79.024 121.716 80.528L119.796 79.696C121.396 78.352 122.868 75.92 123.604 73.616ZM126.1 54.096H133.108V55.888H125.044L126.1 54.096ZM139.412 51.568H141.46V57.712C141.46 62.832 140.404 68.496 132.948 72.528C132.628 72.048 131.956 71.408 131.412 71.024C138.548 67.248 139.412 62.064 139.412 57.712V51.568ZM159.956 67.664H178.836V69.648H159.956V67.664ZM170.772 55.92H172.724V61.776C172.724 62.448 172.852 62.544 173.716 62.544C174.068 62.544 175.988 62.544 176.5 62.544C177.236 62.544 177.364 62.224 177.428 59.664C177.844 59.984 178.644 60.272 179.22 60.432C178.996 63.536 178.452 64.336 176.756 64.336C176.276 64.336 173.908 64.336 173.46 64.336C171.252 64.336 170.772 63.792 170.772 61.808V55.92ZM160.5 52.976H178.548V58.512H176.596V54.896H162.42V58.64H160.5V52.976ZM168.212 64.144H170.324V80.528H168.212V64.144ZM165.652 55.984H167.668C167.348 60.976 166.068 63.632 160.884 65.072C160.692 64.592 160.18 63.888 159.764 63.536C164.404 62.352 165.396 60.208 165.652 55.984ZM171.188 68.56C172.948 72.112 176.372 75.6 179.732 77.264C179.252 77.648 178.58 78.384 178.228 78.96C174.836 76.976 171.38 73.136 169.492 69.2L171.188 68.56ZM167.444 68.368L169.14 68.976C167.188 73.328 163.604 77.136 159.668 79.088C159.316 78.576 158.74 77.808 158.26 77.424C162.068 75.76 165.652 72.24 167.444 68.368ZM149.428 67.888C151.892 67.152 155.636 65.968 159.284 64.784L159.572 66.768C156.212 67.92 152.692 69.072 150.004 69.968L149.428 67.888ZM149.844 57.712H159.54V59.728H149.844V57.712ZM153.972 51.216H155.988V77.968C155.988 79.184 155.7 79.792 154.932 80.112C154.196 80.464 153.012 80.528 150.964 80.528C150.9 80.016 150.612 79.12 150.356 78.544C151.796 78.576 153.044 78.576 153.428 78.544C153.812 78.544 153.972 78.416 153.972 77.968V51.216ZM182.484 68.016H201.396V70.032H182.484V68.016ZM200.212 68.016H202.42V77.264C202.42 78.096 202.58 78.224 203.508 78.224C203.892 78.224 205.876 78.224 206.388 78.224C207.316 78.224 207.476 77.648 207.572 73.392C208.02 73.808 208.98 74.16 209.588 74.352C209.396 79.152 208.82 80.336 206.612 80.336C206.132 80.336 203.668 80.336 203.22 80.336C200.884 80.336 200.212 79.728 200.212 77.264V68.016ZM193.812 51.152H195.988V55.408H193.812V51.152ZM189.972 55.568H192.212C191.572 61.296 189.62 64.464 182.068 66.064C181.876 65.552 181.364 64.72 180.948 64.304C187.86 62.992 189.428 60.368 189.972 55.568ZM197.332 55.568H199.476V62.032C199.476 62.768 199.636 62.896 200.852 62.896C201.396 62.896 204.372 62.896 205.108 62.896C206.004 62.896 206.196 62.576 206.292 60.432C206.74 60.784 207.604 61.104 208.212 61.232C207.956 64.112 207.348 64.848 205.332 64.848C204.756 64.848 201.204 64.848 200.66 64.848C198.004 64.848 197.332 64.272 197.332 62.064V55.568ZM181.396 54.192H208.628V59.568H206.42V56.144H183.508V59.824H181.396V54.192ZM191.828 64.048H193.972V67.856C193.972 72.176 192.564 77.52 181.78 80.592C181.492 80.08 180.82 79.344 180.34 78.864C190.58 75.984 191.828 71.312 191.828 67.824V64.048ZM228.596 53.104H238.26V55.12H230.676V80.528H228.596V53.104ZM211.508 54.832H226.772V56.752H211.508V54.832ZM210.644 63.664H227.22V65.648H210.644V63.664ZM218.036 51.28H220.116V55.984H218.036V51.28ZM213.524 57.904L215.348 57.52C216.052 59.12 216.66 61.328 216.852 62.736L214.932 63.184C214.772 61.776 214.228 59.568 213.524 57.904ZM222.804 57.264L224.884 57.776C224.18 59.664 223.38 61.872 222.676 63.312L220.948 62.832C221.588 61.328 222.388 58.896 222.804 57.264ZM213.62 76.688H224.276V78.64H213.62V76.688ZM212.852 68.56H225.364V80.368H223.284V70.48H214.868V80.528H212.852V68.56ZM237.684 53.104H238.1L238.452 53.008L240.02 54C238.708 57.008 236.98 60.752 235.444 63.696C238.804 66.736 239.636 69.264 239.636 71.568C239.636 73.456 239.188 74.96 238.1 75.696C237.556 76.048 236.852 76.272 236.02 76.368C235.188 76.464 234.132 76.432 233.172 76.4C233.14 75.792 232.948 74.896 232.564 74.256C233.556 74.352 234.516 74.384 235.188 74.352C235.732 74.288 236.212 74.192 236.596 73.968C237.332 73.52 237.556 72.528 237.556 71.344C237.524 69.296 236.564 66.864 233.204 64.016C234.9 60.688 236.66 56.336 237.684 53.776V53.104Z" fill="black"/>
</svg>
